<?xml version="1.0" encoding="UTF-8"?>
<!DOCTYPE svg  PUBLIC '-//W3C//DTD SVG 1.1//EN'  'http://www.w3.org/Graphics/SVG/1.1/DTD/svg11.dtd'>
<svg width="1497.6" height="1506.3" version="1.1" viewBox="-3665.5 -759.85 1497.6 1506.3" xmlns="http://www.w3.org/2000/svg" xmlns:xlink="http://www.w3.org/1999/xlink" font-family="Liberation Sans,Arial">
 <path d="m-2916.7-750.13c-412.77 0-747.78 335.01-747.78 747.78s335.01 747.78 747.78 747.78 747.78-335.01 747.78-747.78-335.01-747.78-747.78-747.78zm0 124.62c343.98 0 623.16 279.18 623.16 623.16s-279.18 623.12-623.16 623.12-623.16-279.15-623.16-623.12 279.18-623.16 623.16-623.16z" fill="#e3d7f4" fill-rule="evenodd" opacity=".33" stroke="#000" stroke-dashoffset="6.224" stroke-linecap="square" stroke-miterlimit="4.3" stroke-width="2"/>
 <path d="m-2617.6-2.3508a299.11 299.11 0 1 1-598.22 0 299.11 299.11 0 1 1 598.22 0z" fill="#fff" fill-rule="evenodd" stroke="#000" stroke-dashoffset="5.545" stroke-linecap="square" stroke-miterlimit="4.3" stroke-width="2"/>
 <g fill-rule="evenodd" stroke="#000" stroke-dashoffset="6.224" stroke-linecap="square" stroke-miterlimit="4.3" stroke-width="2">
  <path d="m-2916.76-451c-145.98-.0001-275.74 69.866-357.69 177.94l97.469 77.75c58.293-78.453 151.17-129.7 256.03-131.03 1.3931-.0178 2.7901 0 4.1875 0 1.0011 0 2.001.0222 3 .0313l.25-124.66c-1.0859-.0077-2.1623-.0312-3.25-.0312z" fill="#fff6d5"/>
  <path d="m-2913.5-451v124.66c107.3 1.0763 202.15 54.398 260.34 135.72l97.719-77.594c-81.112-110.01-211.25-181.71-358.06-182.78z" fill="#e9c6af"/>
  <path d="m-3274.5-273c-57.037 75.258-90.906 169.02-90.906 270.66 0 39.688 5.1868 78.187 14.875 114.84l121.62-27.75c-7.7227-27.714-11.875-56.928-11.875-87.094 0-72.169 23.652-138.84 63.594-192.72l-97.312-77.938z" fill="#eeecdb"/>
  <path d="m-2555.4-268.1-97.531 77.781c37.862 53.028 60.156 117.92 60.156 188 0 31.827-4.6233 62.592-13.188 91.656l121.66 28.031c10.534-38.105 16.188-78.246 16.188-119.69 0-99.461-32.438-191.36-87.281-265.78z" fill="#dbdee3"/>
  <path d="m-3228.8 85.1-121.69 27.531c34.274 129.53 125.05 236.16 244.34 291.84l54.094-112.34c-85.522-39.394-150.98-114.94-176.75-207.03z" fill="#d7f4ee"/>
  <path d="m-2606 89.7c-27.014 91.276-93.169 165.78-179 204.06l53.875 112.47c119.66-54.494 211.22-160.05 246.84-288.75l-121.72-27.781z" fill="#ffe6d5"/>
  <path d="m-3051.7 292.3-54.344 112.25c57.522 26.826 121.66 41.781 189.28 41.781 66.139 0 128.95-14.302 185.5-40.031l-54.125-112.38c-40.163 17.852-84.613 27.781-131.38 27.781-48.152 0-93.845-10.54-134.94-29.406z" fill="#ffd5d5"/>
 </g>
 <g fill-rule="evenodd" stroke="#000" stroke-dashoffset="6.224" stroke-linecap="square" stroke-miterlimit="4.3" stroke-width="2">
  <path d="m-2917.91-600.6 1.2813 124.62c219.44.0567 404.17 149.61 457.78 352.28l118.72-38.406c-69.938-252.74-301.72-438.5-576.62-438.5-.3864 0-.77-.0008-1.1563 0z" fill="#e3f4d7"/>
  <path d="m-2921.1-600.6c-274.88 1.9757-505.86 189.64-573.66 443.72l119.09 37.312c51.825-203.4 235.4-354.33 454.38-356.41l.1875-124.62z" fill="#fff6d5"/>
  <path d="m-2339.1-158.7-118.41 39.844c9.4398 37.274 14.438 76.305 14.438 116.5-1e-4 162.57-82.043 306.09-206.97 391.38l73.125 100.97c156.13-107.98 258.47-288.28 258.47-492.34 0-54.086-7.1809-106.5-20.656-156.34z" fill="#c8b7b7"/>
  <path d="m-3495.6-153.5c-12.578 48.272-19.281 98.901-19.281 151.09 0 205.87 104.19 387.55 262.66 495.19l72.219-101.62c-126.75-85.006-210.25-229.58-210.25-393.56 0-38.694 4.6693-76.305 13.438-112.31l-118.78-38.781z" fill="#d7f4ee"/>
  <path d="m-2654.5 392c-75.078 50.017-165.24 79.188-262.16 79.188-95.498 0-184.4-28.32-258.81-77l-73.5 100.81c95.076 63.679 209.37 100.84 332.31 100.84 124.76 0 240.63-38.278 336.53-103.69l-74.375-100.16z" fill="#ffd5d5"/>
 </g>
 <path d="m-3254.1 197.6 5.0439-3.3352 12.071 18.192-15.953 10.548c-4.0774-1.322-7.6605-3.0973-10.75-5.3256-3.089-2.2284-5.6677-4.9066-7.7359-8.0346-2.7922-4.2229-4.425-8.6575-4.8981-13.304-.4733-4.6463.4191-8.9804 2.677-13.002 2.2578-4.0217 5.4982-7.4287 9.721-10.221 4.1837-2.7663 8.6674-4.4736 13.451-5.1218s9.1409.0882 13.072 2.2092c3.9312 2.121 7.3123 5.3223 10.143 9.6038 2.0552 3.1085 3.4101 6.2516 4.0644 9.4296.6542 3.1779.5539 6.0751-.3011 8.6916-.855 2.6164-2.4836 5.2526-4.8857 7.9088l-4.8009-4.2013c1.763-2.0929 2.9533-4.0321 3.5712-5.8174.6178-1.7853.7148-3.8163.2912-6.0931-.4237-2.2767-1.3529-4.5002-2.7878-6.6702-1.7193-2.6002-3.6018-4.5867-5.6475-5.9595s-4.0983-2.2143-6.1577-2.5244-4.0748-.2771-6.0457.099c-3.3829.6633-6.6284 2.0225-9.7369 4.0779-3.8319 2.5336-6.6019 5.3135-8.3099 8.3395-1.708 3.0259-2.3539 6.2136-1.9376 9.563.4164 3.3492 1.5618 6.4413 3.4362 9.2761 1.6288 2.4633 3.6928 4.5545 6.1923 6.2736 2.4994 1.719 4.6874 2.8291 6.5642 3.3304l8.0058-5.2936-8.3572-12.639zm1.3642 36.937 39.715-32.848 4.3469 5.2556-35.028 28.972 16.178 19.559-4.6866 3.8764-20.525-24.815zm21.984 26.907 50.336-22.678 5.2191 5.1718-21.293 51.457-5.5189-5.4688 6.7167-15.319-15.308-15.169-15.008 7.1037-5.1444-5.0976zm25.46-4.566 12.411 12.298 6.2258-13.925c1.8865-4.2347 3.5284-7.623 4.9256-10.165-2.7923 1.8855-5.7595 3.5646-8.9016 5.0373l-14.661 6.7541zm21.661 27.588 5.3821 3.5694c-1.3684 2.2062-2.132 4.3023-2.2911 6.2883-.159 1.9861.3602 4.108 1.558 6.366 1.1976 2.2579 2.9421 4.2997 5.2333 6.1255 2.0346 1.6212 4.0719 2.7502 6.112 3.3867 2.04.6365 3.8603.7309 5.4608.2832 1.6005-.4479 2.8973-1.2951 3.8906-2.5415 1.0077-1.2647 1.5211-2.6612 1.5402-4.1894.019-1.5282-.5592-3.2851-1.7342-5.2703-.7457-1.2833-2.6156-3.8447-5.6097-7.684-2.9944-3.8393-4.9199-6.7446-5.7765-8.7159-1.1214-2.5418-1.5588-4.9356-1.3124-7.1818.2463-2.246 1.1071-4.2947 2.5823-6.1461 1.6212-2.0346 3.714-3.4762 6.2783-4.3249 2.5641-.8487 5.3204-.8477 8.2686.0031 2.9482.8509 5.7787 2.3571 8.4916 4.5187 2.9878 2.3808 5.2393 4.9616 6.7546 7.7423 1.5152 2.7807 2.142 5.5953 1.8804 8.4435-.2617 2.8482-1.2888 5.4912-3.0812 7.9288l-5.4209-3.6901c1.7553-2.7669 2.3586-5.4328 1.8101-7.9976-.5486-2.5648-2.3717-5.0814-5.4694-7.5499-3.2261-2.5706-6.048-3.8526-8.4656-3.8461-2.4177.0066-4.291.8439-5.6201 2.5119-1.1539 1.448-1.5809 3.0558-1.2809 4.8231.2815 1.7528 2.1992 4.8466 5.7527 9.2816 3.5537 4.4349 5.8449 7.6616 6.8737 9.6801 1.4845 2.951 2.1249 5.7014 1.9213 8.2513-.2037 2.5498-1.1673 4.9062-2.8908 7.0692-1.7089 2.1446-3.9333 3.6762-6.6731 4.5948-2.7398.9185-5.6798.9882-8.82.2092-3.1403-.779-6.1493-2.3151-9.0271-4.6082-3.6476-2.9065-6.2806-5.8736-7.8988-8.9012-1.6183-3.0276-2.2778-6.1678-1.9784-9.4206.2993-3.2527 1.4858-6.2557 3.5596-9.0086zm474.2308 54.054-3.3202-5.0538 18.228-12.016 10.501 15.984c-1.3341 4.0734-3.12 7.6512-5.3575 10.734-2.2376 3.0824-4.9235 5.6531-8.0576 7.712-4.2312 2.7796-8.6706 4.3992-13.318 4.8585-4.6477.4594-8.9791-.4459-12.994-2.7157s-7.4122-5.5203-10.192-9.7515c-2.7538-4.1919-4.4477-8.6806-5.0817-13.466-.6339-4.7854.1155-9.1406 2.2482-13.066 2.1327-3.9249 5.3441-7.2965 9.634-10.115 3.1145-2.046 6.2617-3.3915 9.4416-4.0363 3.1799-.6447 6.0768-.5358 8.6907.327s5.2452 2.4992 7.8942 4.9093l-4.2155 4.7884c-2.0877-1.7692-4.0233-2.9654-5.8067-3.5886-1.7835-.6231-3.8142-.7261-6.0922-.3093-2.2779.4169-4.5042 1.3395-6.6785 2.7679-2.6053 1.7116-4.5974 3.5882-5.9763 5.6297-1.3789 2.0417-2.2265 4.0917-2.5427 6.1502s-.2892 4.0739.081 6.046c.6532 3.3848 2.0028 6.6344 4.0489 9.749 2.5222 3.8394 5.2939 6.6176 8.3147 8.3346 3.0209 1.7171 6.2066 2.3724 9.5572 1.9661 3.3504-.4064 6.4459-1.5426 9.2863-3.4085 2.4682-1.6214 4.5655-3.6793 6.292-6.1736s2.8431-4.679 3.3499-6.5542l-5.2698-8.0216-12.664 8.3196zm37.361-1.409-33.086-39.517 28.573-23.923 3.9044 4.6633-23.343 19.545 10.134 12.103 21.861-18.304 3.8819 4.6363-21.861 18.304 11.262 13.451 24.26-20.312 3.9045 4.6633-29.489 24.691zm42.867-37.52-47.194-24.82 4.7356-5.1497 30.176 17.098c3.1761 1.7745 6.2557 3.6194 9.2388 5.5346-3.1659-4.6943-4.98-7.4132-5.4424-8.1569l-18.98-30.779 5.5684-6.0555 24.199 12.223c6.0148 3.0157 11.396 6.1492 16.144 9.4005-1.9539-2.6882-4.1266-5.8483-6.518-9.4803l-18.904-28.369 4.6404-5.0462 28.371 45.289-4.45 4.8392-36.259-18.585c-3.034-1.5482-4.8825-2.5158-5.5456-2.9027 1.3775 1.9991 2.5201 3.7344 3.4277 5.2058l21.505 34.629-4.7117 5.1239zm38.949-44.41-42.144-29.667 21.451-30.473 4.9733 3.5009-17.525 24.896 12.908 9.0862 16.412-23.314 4.9447 3.4807-16.412 23.314 14.345 10.098 18.213-25.873 4.9734 3.501-22.139 31.45zm26.983-39.324-45.082-24.977 9.3708-16.914c1.9083-3.4442 3.8949-5.954 5.9601-7.5295 2.0652-1.5754 4.3726-2.4271 6.922-2.5553 2.5495-.1281 4.8596.3814 6.9302 1.5285 1.9271 1.0677 3.4518 2.5958 4.5741 4.5841 1.1223 1.9884 1.6213 4.328 1.4969 7.0188 2.3103-2.2837 4.835-3.6246 7.5742-4.0228 2.7393-.3981 5.421.1298 8.0452 1.5837 2.1116 1.1699 3.8275 2.7034 5.1478 4.6004 1.3203 1.8971 2.109 3.7742 2.3661 5.6315.2571 1.8572.0888 3.9142-.5051 6.1709-.5937 2.2567-1.6858 4.8201-3.2759 7.6903l-9.5241 17.19zm-22.834-20.448 5.401-9.7484c1.4652-2.6446 2.3416-4.6375 2.6292-5.9787.3895-1.7669.2744-3.3244-.3452-4.6726-.6197-1.348-1.7188-2.4594-3.2974-3.334-1.4965-.8292-3.0125-1.2002-4.5479-1.1131-1.5354.0872-2.8823.6806-4.0409 1.7803-1.1586 1.0998-2.6352 3.2692-4.4299 6.5084l-4.992 9.0103zm20.819 11.534 6.2188-11.224c1.0677-1.927 1.7456-3.3199 2.0337-4.1784.515-1.5099.741-2.8851.6781-4.1257-.0628-1.2405-.4781-2.462-1.2454-3.6642-.7674-1.2022-1.8687-2.2008-3.3038-2.996-1.6811-.9314-3.3804-1.3101-5.0977-1.1362-1.7174.1739-3.2503.8853-4.5988 2.1343-1.3485 1.2492-2.8178 3.3088-4.408 6.1789l-5.7759 10.425 15.499 8.587zm24.997-33.833-47.49-20.025 14.479-34.338 5.6042 2.363-11.829 28.054 14.545 6.133 11.078-26.272 5.5717 2.3494-11.078 26.272 16.165 6.8159 12.293-29.155 5.6041 2.3631-14.943 35.439zm-489.842 220.95 11.691-50.196 33.863 7.8868-1.3796 5.9236-27.221-6.3399-3.6205 15.545 23.557 5.4865-1.3796 5.9235-23.557-5.4865-5.311 22.804-6.6425-1.547zm37.031 8.7484 26.138-48.63 7.289.9271 14.422 53.789-7.7074-.9803-3.9942-16.243-21.379-2.7191-7.5844 14.77-7.1843-.9137zm17.422-19.119 17.333 2.2045-3.5351-14.838c-1.0804-4.5082-1.8399-8.196-2.2785-11.063-1.0681 3.1955-2.4004 6.3337-3.9972 9.4146l-7.5223 14.282zm36.096 25.398.7353-51.534 22.849.3261c4.5933.0655 8.0785.5782 10.456 1.538 2.3772.9598 4.2638 2.6217 5.6599 4.9856s2.074 4.9637 2.0336 7.7993c-.0523 3.6559-1.2798 6.7208-3.6824 9.1946-2.4028 2.4738-6.0814 4.0152-11.036 4.6242 1.792.8928 3.1507 1.7678 4.0762 2.6248 1.9658 1.8564 3.8198 4.1682 5.5617 6.9355l8.7639 14.154-8.5773-.1224-6.6666-10.819c-1.9479-3.1219-3.5546-5.5122-4.8201-7.1711-1.2656-1.6589-2.4033-2.8236-3.4134-3.4944-1.01-.6707-2.0405-1.1425-3.0914-1.4153-.771-.1751-2.0354-.2752-3.793-.3003l-7.9093-.1128-.3266 22.884-6.8196-.0973zm7.2304-28.693 14.659.2092c3.1168.0445 5.5587-.243 7.3255-.8624 1.7669-.6194 3.1173-1.6314 4.0516-3.0363.9342-1.4048 1.4131-2.9391 1.4369-4.603.0347-2.4372-.8213-4.4535-2.5683-6.049-1.747-1.5953-4.5303-2.4203-8.3503-2.4748l-16.311-.2328-.2433 17.049zm44.432 28.724-5.0523-51.291 19.243-1.8954c3.9185-.386 7.1126-.1767 9.5823.6281 2.4697.8047 4.4814 2.2198 6.0351 4.2452 1.5536 2.0255 2.4465 4.2161 2.6786 6.5718.216 2.1926-.1755 4.3154-1.1744 6.3684-.9988 2.0532-2.6408 3.7928-4.9261 5.2191 3.1917.6041 5.7295 1.9203 7.6132 3.9484 1.8837 2.0283 2.9725 4.5352 3.2667 7.5207.2365 2.4025-.0507 4.6857-.862 6.8499s-1.9082 3.8796-3.2907 5.1462c-1.3825 1.2667-3.171 2.2965-5.3655 3.0897-2.1946.7932-4.9246 1.3506-8.19 1.6722l-19.558 1.9266zm3.858-30.408 11.091-1.0925c3.0088-.2964 5.1468-.7071 6.414-1.2324 1.6754-.6831 2.8919-1.6625 3.6494-2.9383.7575-1.2757 1.0477-2.8115.8709-4.6076-.1678-1.7026-.7236-3.161-1.6674-4.3752-.9439-1.2141-2.1974-1.9855-3.7606-2.3144-1.5632-.3288-4.1875-.3116-7.8727.0513l-10.251 1.0098zm2.3332 23.686 12.77-1.2579c2.1925-.216 3.7239-.4493 4.5941-.6999 1.5352-.4338 2.7954-1.0289 3.7807-1.7855.9853-.7564 1.7546-1.7919 2.3082-3.1064.5534-1.3145.7498-2.7882.589-4.4209-.1884-1.9126-.842-3.5262-1.9606-4.8409-1.1186-1.3146-2.5749-2.172-4.3689-2.5724-1.794-.4002-4.3237-.4395-7.5891-.1179l-11.861 1.1684 1.7369 17.633zm42.044 1.3493-10.537-50.45 36.479-7.619 1.2435 5.9535-29.802 6.2246 3.2273 15.452 27.909-5.8292 1.2364 5.9192-27.91 5.8292 3.5868 17.172 30.972-6.469 1.2434 5.9536-37.648 7.8633zm-430.5466-419.3247-45.313-3.6195-1.3521 16.927-6.0627-.4843 3.2528-40.722 6.0627.4843-1.3577 16.997 45.313 3.6194-.543 6.7987zm-22.148-34.379c-8.342-1.8952-14.364-5.6186-18.066-11.17-3.7018-5.5518-4.748-11.87-3.1384-18.955 1.0541-4.6395 3.1127-8.5702 6.176-11.792 3.0633-3.2217 6.7996-5.3591 11.209-6.4125 4.4093-1.0532 9.128-1.0088 14.156.1336 5.0967 1.1579 9.4227 3.2223 12.978 6.193 3.5551 2.9709 5.9386 6.5767 7.1502 10.818 1.2117 4.241 1.3217 8.5441.3299 12.91-1.0748 4.731-3.1781 8.6996-6.3099 11.906-3.1319 3.2061-6.8928 5.3201-11.283 6.3416s-8.7907 1.0312-13.202.0292zm1.6606-6.8331c6.0566 1.376 11.198.8314 15.423-1.6336 4.2253-2.4651 6.8961-6.1545 8.0124-11.068 1.1372-5.0052.3132-9.5246-2.4718-13.558-2.785-4.0336-7.4114-6.785-13.88-8.2546-4.091-.9293-7.8192-1.0493-11.184-.3598-3.3653.6896-6.1902 2.1749-8.475 4.4558-2.2848 2.281-3.8036 5.0785-4.5565 8.3925-1.0695 4.7082-.3729 9.1266 2.09 13.255 2.463 4.1287 7.477 7.0524 15.042 8.7711zm36.65-43.952-47.729-19.449 2.6401-6.4789 47.688-9.7991-37.473-15.27 2.4677-6.0556 47.728 19.449-2.6399 6.4788-47.721 9.7859 37.506 15.283-2.4676 6.0557zm80.5374-168.5769 4.203-4.9033c2.0216 1.6288 4.008 2.644 5.9596 3.0456 1.9515.4016 4.1212.1466 6.509-.7649 2.3879-.9114 4.6283-2.392 6.7215-4.4419 1.8587-1.8202 3.2291-3.7036 4.1113-5.65s1.1993-3.7414.9513-5.3849c-.2479-1.6433-.9296-3.0343-2.0447-4.173-1.1314-1.1554-2.4544-1.8363-3.9687-2.0428-1.5144-.2064-3.3288.1517-5.4433 1.0742-1.3651.5825-4.1366 2.1238-8.3145 4.6242-4.1778 2.5004-7.2975 4.0548-9.359 4.663-2.6602.8008-5.0897.9412-7.2885.421-2.1989-.5201-4.1264-1.6259-5.7827-3.3172-1.8203-1.8586-2.9941-4.1125-3.5217-6.7615-.5275-2.649-.1881-5.3843 1.018-8.2058 1.2063-2.8214 3.0486-5.4457 5.5268-7.8727 2.7295-2.6729 5.567-4.5907 8.5128-5.7533 2.9456-1.1625 5.8158-1.4391 8.6103-.8298 2.7946.6093 5.2915 1.953 7.4907 4.0311l-4.3276 4.9269c-2.5305-2.0816-5.1022-3.0076-7.715-2.778-2.6127.2296-5.3341 1.7301-8.164 4.5014-2.9471 2.8862-4.5659 5.5294-4.8561 7.9296-.2902 2.4001.3108 4.3622 1.803 5.8858 1.2955 1.3229 2.8386 1.944 4.6294 1.8633 1.7741-.0643 5.0799-1.5876 9.9175-4.5702 4.8375-2.9823 8.3211-4.8602 10.451-5.6336 3.1108-1.111 5.9191-1.4089 8.4246-.8939 2.5056.5151 4.7258 1.7607 6.6609 3.7365 1.9187 1.9593 3.1656 4.3547 3.741 7.1866.5753 2.8318.2836 5.7582-.8749 8.779-1.1586 3.0209-3.0524 5.8187-5.6814 8.3933-3.3322 3.2633-6.6001 5.5122-9.8034 6.7466-3.2033 1.2343-6.4007 1.5035-9.5922.8071-3.1914-.6963-6.026-2.2424-8.5036-4.6384zm58.692-30.717-27.247-36.386-13.592 10.178-3.6456-4.8683 32.699-24.487 3.6457 4.8683-13.648 10.22 27.247 36.386-5.4593 4.0881zm25.242-18.133-24.887-45.132 32.633-17.995 2.9369 5.326-26.661 14.701 7.6221 13.823 24.968-13.768 2.9198 5.2951-24.968 13.768 8.4712 15.362 27.707-15.278 2.9368 5.326zm43.666-22.429-19.973-47.512 6.2873-2.6431 19.973 47.512-6.2874 2.643zm17.213-7.5509-14.424-49.479 6.7164-1.958 37.314 31.271-11.325-38.848 6.2778-1.8302 14.424 49.479-6.7166 1.958-37.323-31.305 11.335 38.882-6.2778 1.83zm194.287 3.7099 12.299-50.05 6.6233 1.6275-5.0504 20.553 26.015 6.3927 5.0504-20.553 6.6233 1.6275-12.299 50.05-6.6233-1.6275 5.7971-23.591-26.015-6.3927-5.7971 23.591zm58.017-10.932c3.3081-7.8892 8.0162-13.177 14.124-15.864 6.1079-2.6868 12.512-2.6254 19.212.1843 4.3876 1.8399 7.9034 4.5468 10.547 8.1208 2.6439 3.5739 4.1036 7.6234 4.3792 12.148.2754 4.525-.5839 9.1651-2.5779 13.92-2.0211 4.82-4.8019 8.7241-8.3423 11.712-3.5405 2.9884-7.504 4.7128-11.89 5.1734-4.3866.4606-8.6441-.1746-12.772-1.9058-4.4742-1.8762-8.0196-4.6337-10.636-8.2723-2.6167-3.6388-4.0489-7.7085-4.2965-12.209s.5033-8.8366 2.2526-13.008zm6.4434 2.8162c-2.4019 5.7278-2.7539 10.885-1.0561 15.473 1.6979 4.5877 4.8703 7.8558 9.5173 9.8045 4.7335 1.9849 9.3273 1.9544 13.782-.0917 4.4541-2.046 7.9637-6.1276 10.529-12.244 1.6224-3.869 2.3847-7.5203 2.2871-10.954-.0977-3.4338-1.0725-6.473-2.9243-9.1175-1.8519-2.6445-4.3449-4.6239-7.4789-5.9381-4.4525-1.8671-8.9248-1.9444-13.417-.232-4.4923 1.7125-8.2383 6.1459-11.238 13.3zm36.6 43.875 26.635-44.123 5.839 3.5247-23.492 38.916 21.73 13.118-3.1431 5.2069-27.57-16.642zm31.055 18.804 3.9568-4.9385 41.246-9.2542c2.9288-.6567 5.5938-1.1343 7.9952-1.4327l-22.443-17.981 3.8029-4.7465 28.808 23.081-3.8029 4.7466-44.936 9.8115-4.706.8695 25.68 20.575-3.8029 4.7465-31.799-25.477zm98.5846 97.2368 45.507-24.196 4.8194 9.0641-26.494 27.903c-2.4726 2.5887-4.3328 4.5069-5.5807 5.7544 1.9306-.3629 4.7913-.8487 8.5821-1.4572l37.455-5.939 4.3076 8.1018-45.507 24.195-3.0863-5.8047 38.088-20.251-45.119 7.0273-2.8883-5.4323 31.742-33.759-38.74 20.597-3.0863-5.8047zm27.208 53.948 48.726-16.794 12.143 35.232-5.7501 1.9818-9.9205-28.784-14.924 5.1436 9.2904 26.956-5.7168 1.9704-9.2905-26.956-16.586 5.7163 10.31 29.914-5.7502 1.9819-12.532-36.362zm17.279 58.513 44.628-8.644-3.229-16.671 5.9711-1.1565 7.7683 40.106-5.9711 1.1565-3.2423-16.74-44.628 8.6441-1.297-6.696zm4.989 24.84 52.396 17.397.3386 7.3399-50.512 23.446-.358-7.7614 15.316-6.7247-.9931-21.528-15.854-4.9349-.3336-7.2345zm21.827 13.88.8052 17.454 14.01-6.031c4.2556-1.8387 7.7582-3.2203 10.508-4.1449-3.3315-.5032-6.6519-1.2768-9.9613-2.3207l-15.362-4.9575zm-20.387 39.583 51.312 4.8305-.6393 6.7903-45.257-4.2605-2.379 25.271-6.0553-.57 3.0183-32.061zm-4.4341 39.847 50.315 11.164-1.4774 6.6583-44.378-9.8469-5.4984 24.78-5.9376-1.3175 6.9758-31.439z"/>
 <path d="m-2942.6-759.85h53.54v440.43h-53.54z" fill="#fff" fill-rule="evenodd" opacity=".7"/>
 <path d="m-2930.8-727.81v-3.5156h22.402c-.8073-.8464-1.6146-1.9564-2.4219-3.3301s-1.4128-2.6074-1.8164-3.7012h3.3984c.9245 1.9661 2.0443 3.6849 3.3594 5.1562s2.5911 2.513 3.8281 3.125v2.2656zm-.4883 7.3633 29.609 8.3008v2.8125l-29.609-8.2812zm3.8672 31.23h-3.3789v-18.926c.8464-.026 1.6602.1107 2.4414.4102 1.2891.4818 2.5586 1.2532 3.8086 2.3144s2.6953 2.5944 4.336 4.5996c2.552 3.112 4.5735 5.2148 6.0644 6.3086 1.4909 1.0937 2.9004 1.6406 4.2285 1.6406 1.3932 0 2.5684-.4981 3.5254-1.4941.957-.9961 1.4355-2.2949 1.4356-3.8965-.0001-1.6927-.5079-3.0469-1.5235-4.0625s-2.4219-1.53-4.2187-1.543l.3711-3.6133c2.6953.2474 4.7493 1.1784 6.1621 2.793 1.4127 1.6146 2.1191 3.7826 2.1191 6.5039 0 2.7474-.7617 4.9219-2.2851 6.5234-1.5235 1.6015-3.4115 2.4023-5.6641 2.4023-1.1458 0-2.2721-.2344-3.3789-.7031-1.1068-.4688-2.2721-1.2468-3.4961-2.334s-2.9036-2.8939-5.0391-5.4199c-1.7708-2.1094-2.972-3.4636-3.6035-4.0625-.6315-.599-1.2662-1.0938-1.9043-1.4844v14.043zm4.7461 14.375.4688 3.418c-2.1875.0911-3.6849.5013-4.4922 1.2305s-1.211 1.7383-1.2109 3.0274c-.0001.9505.218 1.7708.6542 2.4609s1.0287 1.1654 1.7774 1.4258 1.9433.3906 3.584.3906h19.726v3.7891h-19.512c-2.3958 0-4.2513-.2897-5.5664-.8691s-2.3177-1.4974-3.0078-2.7539-1.0352-2.7311-1.0352-4.4238c0-2.513.7227-4.4369 2.168-5.7715s3.5938-1.9759 6.4453-1.9238zm-8.125 18.789 28.633 10.996v4.082l-28.633 11.719v-4.3164l8.6719-3.3398v-11.973l-8.6719-3.1445v-4.0234zm11.758 8.2617v9.707l7.9297-2.9883c2.4089-.9115 4.388-1.5886 5.9375-2.0312-1.8359-.3646-3.6588-.8789-5.4687-1.543zm-11.758 21.719h28.633v3.7891h-11.758v14.883h11.758v3.7891h-28.633v-3.7891h13.496v-14.883h-13.496zm0 28.848h28.633v12.695c0 2.5521-.2571 4.4922-.7714 5.8203-.5144 1.3281-1.4226 2.3893-2.7247 3.1836s-2.7409 1.1914-4.3164 1.1914c-2.0312 0-3.7435-.6576-5.1367-1.9727s-2.2786-3.3464-2.6562-6.0938c-.4818 1.0026-.9571 1.7643-1.4258 2.2852-1.0156 1.1068-2.2852 2.1549-3.8086 3.1445l-7.793 4.9805v-4.7656l5.9571-3.7891c1.7187-1.1068 3.0338-2.0182 3.9453-2.7344.9114-.7162 1.5494-1.3574 1.914-1.9238s.6185-1.1426.7618-1.7285c.0911-.4297.1367-1.1328.1367-2.1094v-4.3945h-12.715v-3.7891zm15.996 3.7891v8.1445c0 1.7318.179 3.0859.5371 4.0625.3581.9765.931 1.7187 1.7188 2.2266.7877.5078 1.6438.7617 2.5683.7617 1.3542 0 2.4675-.4916 3.3399-1.4746.8724-.9831 1.3086-2.5358 1.3086-4.6582v-9.0625zm-15.996 25.137h28.633v20.703h-3.3789v-16.914h-8.7695v15.84h-3.3594v-15.84h-9.7461v17.578h-3.3789v-21.367zm-8.4179 38.32h37.539v3.0664h-37.539zm15.976 19.492.4688 3.5156c-1.9922.4036-3.4278 1.0905-4.3067 2.0606-.8789.97-1.3183 2.1517-1.3183 3.5449 0 1.6536.5729 3.0501 1.7187 4.1894s2.5651 1.709 4.2578 1.709c1.6146 0 2.946-.5274 3.9942-1.582 1.0481-1.0547 1.5722-2.3958 1.5722-4.0234 0-.6641-.1302-1.4909-.3906-2.4805l3.086.3906c-.0261.2344-.0391.4232-.0391.5664 0 1.4974.3906 2.845 1.1719 4.043.7812 1.1979 1.9856 1.7969 3.6132 1.7969 1.2891 0 2.3568-.4362 3.2032-1.3086.8463-.8724 1.2695-1.9987 1.2695-3.3789 0-1.3672-.4297-2.5065-1.2891-3.418s-2.1484-1.4974-3.8671-1.7578l.625-3.5156c2.3567.4297 4.1829 1.4062 5.4785 2.9297 1.2955 1.5234 1.9433 3.418 1.9433 5.6836 0 1.5625-.3353 3.0013-1.0058 4.3164-.6706 1.3151-1.5853 2.321-2.7442 3.0176s-2.3893 1.0449-3.6914 1.0449c-1.237 0-2.3633-.3321-3.3789-.9961-1.0156-.6641-1.8229-1.6472-2.4219-2.9492-.3906 1.6927-1.2011 3.0078-2.4316 3.9453s-2.7702 1.4062-4.6191 1.4062c-2.5 0-4.6192-.9115-6.3575-2.7344-1.7382-1.8229-2.6074-4.1276-2.6074-6.9141 0-2.513.7487-4.5996 2.2461-6.2598s3.4375-2.6074 5.8203-2.8418zm.5664 32.832.4688 3.418c-2.1875.0911-3.6849.5013-4.4922 1.2305s-1.211 1.7383-1.2109 3.0274c-.0001.9505.218 1.7708.6542 2.4609s1.0287 1.1654 1.7774 1.4258 1.9433.3906 3.584.3906h19.726v3.7891h-19.512c-2.3958 0-4.2513-.2897-5.5664-.8691s-2.3177-1.4974-3.0078-2.7539-1.0352-2.7311-1.0352-4.4238c0-2.513.7227-4.4369 2.168-5.7715s3.5938-1.9759 6.4453-1.9238zm-8.125 18.789 28.633 10.996v4.082l-28.633 11.719v-4.3164l8.6719-3.3398v-11.973l-8.6719-3.1445v-4.0234zm11.758 8.2617v9.707l7.9297-2.9883c2.4089-.9115 4.388-1.5886 5.9375-2.0312-1.8359-.3646-3.6588-.8789-5.4687-1.543zm-11.758 21.719h28.633v3.7891h-11.758v14.883h11.758v3.7891h-28.633v-3.7891h13.496v-14.883h-13.496zm0 28.848h28.633v12.695c0 2.5521-.2571 4.4922-.7714 5.8203-.5144 1.3281-1.4226 2.3893-2.7247 3.1836s-2.7409 1.1914-4.3164 1.1914c-2.0312 0-3.7435-.6576-5.1367-1.9727s-2.2786-3.3464-2.6562-6.0938c-.4818 1.0026-.9571 1.7643-1.4258 2.2852-1.0156 1.1068-2.2852 2.1549-3.8086 3.1445l-7.793 4.9805v-4.7656l5.9571-3.7891c1.7187-1.1068 3.0338-2.0182 3.9453-2.7344.9114-.7162 1.5494-1.3574 1.914-1.9238s.6185-1.1426.7618-1.7285c.0911-.4297.1367-1.1328.1367-2.1094v-4.3945h-12.715v-3.7891zm15.996 3.7891v8.1445c0 1.7318.179 3.0859.5371 4.0625.3581.9765.931 1.7187 1.7188 2.2266.7877.5078 1.6438.7617 2.5683.7617 1.3542 0 2.4675-.4916 3.3399-1.4746.8724-.9831 1.3086-2.5358 1.3086-4.6582v-9.0625zm-15.996 25.137h28.633v20.703h-3.3789v-16.914h-8.7695v15.84h-3.3594v-15.84h-9.7461v17.578h-3.3789v-21.367zm-598.1995 128.1601-42.986-.5487 2.1427-5.3274 30.905 1.2011c2.4777.0927 4.7691.2579 6.8742.4955-1.7982-1.3913-3.5591-2.8756-5.2824-4.453l-22.977-20.913 2.0203-5.023 31.334 29.52-2.0305 5.0483zm-8.502-30.879c-6.0188-2.8361-9.9694-6.6726-11.852-11.509s-1.6189-9.811.7899-14.923c1.5774-3.3475 3.7991-5.9882 6.6652-7.9225 2.8661-1.9341 6.0619-2.932 9.5873-2.9938 3.5254-.0617 7.102.7622 10.73 2.4716 3.6773 1.7328 6.6174 4.0251 8.8203 6.8767 2.203 2.8517 3.4095 5.9897 3.6198 9.4137.2102 3.4241-.4267 6.7109-1.9108 9.8605-1.6085 3.4134-3.8705 6.0756-6.7861 7.9864s-6.1261 2.8867-9.6316 2.9276c-3.5055.041-6.8496-.6885-10.032-2.1882zm2.4054-4.9121c4.3698 2.0592 8.3658 2.5063 11.988 1.3415 3.622-1.1649 6.2683-3.52 7.939-7.0654 1.7017-3.6113 1.8325-7.182.3926-10.712-1.44-3.5299-4.4933-6.3944-9.16-8.5935-2.9518-1.3908-5.7634-2.1061-8.4349-2.1458-2.6716-.0396-5.066.6155-7.1833 1.9654-2.1172 1.3501-3.7392 3.2206-4.8659 5.6116-1.6007 3.397-1.8113 6.8696-.6319 10.418 1.1795 3.5484 4.4983 6.6085 9.9566 9.1804zm34.813-27.55-35.198-19.184 8.5057-15.606c1.7099-3.1373 3.3259-5.3498 4.8479-6.6379 1.5221-1.2881 3.3495-1.984 5.4823-2.0881 2.1328-.104 4.1675.3718 6.1043 1.4274 2.4969 1.361 4.1612 3.3165 4.9928 5.8665.8315 2.5501.559 5.6403-.8175 9.2706 1.2639-.9097 2.3585-1.5277 3.2837-1.8538 1.99-.6801 4.2529-1.118 6.7886-1.3138l12.916-.9012-3.1929 5.8582-9.8614.6667c-2.8544.2089-5.0816.4483-6.6819.718-1.6002.2697-2.8142.6306-3.6418 1.0825-.8277.4521-1.5258.9902-2.0945 1.6145-.3999.4672-.927 1.3009-1.5813 2.5014l-2.9443 5.402 15.63 8.5188-2.5387 4.6577zm-17.125-15.375 5.4567-10.012c1.1603-2.1288 1.8475-3.9134 2.0616-5.3537.2141-1.4404.0071-2.7365-.6211-3.8886-.6281-1.152-1.5104-2.0377-2.6469-2.6571-1.6646-.9072-3.3625-1.0489-5.0935-.425-1.7311.6239-3.3076 2.2405-4.7296 4.8494l-6.0717 11.14 11.644 6.3466zm36.628-19.741-34.196-20.916 2.768-4.5253 30.161 18.448 10.301-16.842 4.0354 2.4683-13.069 21.367zm16.554-26.804-33.145-22.546 16.302-23.966 3.9114 2.6605-13.318 19.579 10.152 6.9051 12.472-18.336 3.8887 2.6453-12.472 18.336 11.282 7.6741 13.841-20.348 3.9114 2.6605-16.825 24.734zm21.238-30.865-31.828-24.369 3.2249-4.2119 13.07 10.007 12.667-16.544-13.07-10.007 3.2249-4.2118 31.828 24.369-3.2249 4.2118-15.002-11.486-12.667 16.544 15.002 11.487zm24.757-31.916-30.308-26.236 11.633-13.438c2.3385-2.7012 4.3884-4.5192 6.1498-5.4538s3.695-1.2256 5.8011-.8733c2.106.3525 3.9928 1.2504 5.6605 2.6941 2.1501 1.8613 3.3599 4.1262 3.6296 6.7948.2697 2.6687-.6543 5.63-2.7721 8.8841 1.4287-.6198 2.6297-.9906 3.6031-1.1124 2.0892-.2409 4.3934-.1871 6.9127.1613l12.812 1.8689-4.3667 5.0444-9.7774-1.4477c-2.8334-.4033-5.0606-.6437-6.6815-.7208-1.621-.0771-2.8839.017-3.7888.2825s-1.7016.6428-2.3901 1.1317c-.4902.3713-1.1827 1.0738-2.0776 2.1074l-4.0267 4.6516 13.458 11.651-3.4719 4.0107zm-13.46-18.668 7.4628-8.6209c1.5868-1.833 2.6381-3.4304 3.1539-4.7923.5158-1.3617.5895-2.6723.2209-3.9316-.3685-1.2593-1.042-2.3125-2.0206-3.1597-1.4333-1.2408-3.0621-1.7406-4.8863-1.4994-1.8242.2413-3.7087 1.4852-5.6535 3.7316l-8.3039 9.5925zm40.194-11.755-28.687-27.998 20.244-20.743 3.3854 3.304-16.539 16.946 8.7863 8.5752 15.489-15.87 3.3658 3.285-15.489 15.87 9.7647 9.5302 17.189-17.612 3.3854 3.304zm888.9976-52.1249 14.072-40.621 4.3803 3.7129-10.882 28.951c-.8691 2.3222-1.7482 4.4446-2.6372 6.3675 1.8872-1.2679 3.8509-2.4711 5.8911-3.6093l27.09-15.213 4.1301 3.5007-37.892 20.43-4.1508-3.5184zm31.985 1.6659c4.5889-4.8179 9.4751-7.3576 14.658-7.6192 5.1834-.2615 9.821 1.5564 13.913 5.4539 2.6795 2.5522 4.4852 5.4932 5.4174 8.8229.932 3.3297.8716 6.6771-.1811 10.042-1.0528 3.3651-2.9622 6.4996-5.728 9.4036-2.8037 2.9435-5.906 5.0111-9.3066 6.2028-3.4008 1.1916-6.7591 1.3475-10.075.4676-3.3157-.8799-6.2342-2.5205-8.7554-4.9218-2.7323-2.6025-4.5456-5.5884-5.4399-8.9577s-.8084-6.7238.2579-10.063c1.0662-3.3397 2.8126-6.2833 5.2391-8.8308zm3.9034 3.8312c-3.3318 3.4979-5.0158 7.1492-5.0522 10.954-.0362 3.8046 1.3646 7.0584 4.2025 9.7615 2.8907 2.7533 6.2381 4.0032 10.042 3.7494 3.8038-.2538 7.4848-2.2484 11.043-5.984 2.2504-2.3628 3.8156-4.8056 4.6955-7.3284.8797-2.5228 1.0128-5.0017.3992-7.4365-.6138-2.4349-1.8776-4.5638-3.7915-6.3868-2.7192-2.5899-5.9484-3.8845-9.6875-3.8838-3.7392.0008-7.6896 2.1857-11.851 6.5548zm15.17 41.722 29.301-27.356 12.129 12.992c2.4383 2.6117 4.0286 4.8428 4.7712 6.6932.7426 1.8505.827 3.8042.2534 5.861-.5737 2.0568-1.6666 3.8378-3.2789 5.3431-2.0787 1.9406-4.4591 2.9036-7.1413 2.8889s-5.5289-1.2475-8.5402-3.6983c.4649 1.4863.7063 2.7199.7242 3.7007.0181 2.1029-.2797 4.3885-.8933 6.8566l-3.2165 12.542-4.553-4.8768 2.476-9.5688c.7015-2.7747 1.1765-4.9638 1.425-6.5675s.2888-2.8695.1207-3.7974c-.1681-.928-.4586-1.7601-.8719-2.4966-.3172-.5268-.9423-1.2899-1.8754-2.2892l-4.1984-4.4971-13.012 12.148-3.6199-3.8775zm19.989-11.405 7.7812 8.3346c1.6545 1.7722 3.1315 2.9869 4.4309 3.6441 1.2995.6573 2.5948.8694 3.8861.6365 1.2913-.233 2.41-.7911 3.3561-1.6743 1.3857-1.2938 2.0554-2.8604 2.009-4.6999-.0465-1.8395-1.0836-3.8452-3.1113-6.0171l-8.6582-9.274zm7.1881 40.984 30.63-25.859 3.422 4.0534-27.015 22.808 12.735 15.085-3.6145 3.0516-16.158-19.138zm20.219 24.16 31.845-24.348 17.605 23.025-3.7579 2.8732-14.383-18.811-9.7532 7.4571 13.469 17.617-3.7363 2.8566-13.469-17.617-10.839 8.2875 14.947 19.55-3.7579 2.8732-18.169-23.764zm22.596 29.885 33.16-22.523 2.9806 4.3882-13.617 9.2488 11.707 17.236 13.617-9.2488 2.9805 4.3882-33.16 22.523-2.9805-4.3882 15.63-10.616-11.707-17.236-15.63 10.616-2.9804-4.3882zm22.484 33.556 34.453-20.492 9.0856 15.276c1.8263 3.0708 2.9054 5.5893 3.237 7.5554.3316 1.9662-.0017 3.893-.9999 5.7806-.9984 1.8875-2.4454 3.3951-4.3412 4.5227-2.4441 1.4537-4.9749 1.8879-7.5925 1.3026s-5.1367-2.3958-7.5573-5.4314c.1379 1.5512.1111 2.8078-.0801 3.77-.43 2.0586-1.2074 4.2284-2.3323 6.5094l-5.8126 11.57-3.4106-5.7343 4.4561-8.8225c1.276-2.5618 2.2062-4.5997 2.7904-6.1137.5841-1.514.893-2.7422.9263-3.6847s-.0736-1.8175-.3206-2.625c-.1978-.5822-.6461-1.4609-1.345-2.6359l-3.145-5.2878-15.299 9.0996-2.7117-4.5592zm21.959-6.8886 5.8287 9.7999c1.2393 2.0837 2.4239 3.585 3.5537 4.5038 1.1297.9188 2.3502 1.4018 3.6615 1.449s2.5231-.2599 3.6356-.9215c1.6293-.9692 2.6171-2.3573 2.9633-4.1646.3461-1.8072-.2403-3.9878-1.7591-6.5416l-6.4857-10.904-11.398 6.7792zm-1.5151 41.85 35.614-18.398 13.303 25.751-4.2028 2.1712-10.868-21.038-10.908 5.635 10.178 19.702-4.1785 2.1586-10.178-19.702-12.122 6.2625 11.295 21.864-4.2027 2.1712-13.73-26.577zm-1106.4784 814.2295 26.876-29.741 5.9239 5.3533-11.99 27.42c-1.123 2.5478-1.9757 4.4431-2.5581 5.6857 1.3158-.7765 3.2794-1.889 5.8907-3.3376l25.821-14.258 5.295 4.785-26.876 29.741-3.7937-3.4282 22.495-24.893-31.137 17.083-3.5503-3.2083 14.278-33.092-22.88 25.319-3.7938-3.4283zm31.516 28.463 37.781-20.408 4.3381 3.7202-13.641 41.109-4.5872-3.9338 4.3539-12.26-12.724-10.912-11.245 6.3501-4.2759-3.6669zm19.496-4.9659 10.316 8.8467 4.0511-11.151c1.2267-3.3906 2.3109-6.111 3.2526-8.1612-2.0608 1.6189-4.2687 3.0874-6.6239 4.4056l-10.996 6.0595zm20.252 38.503 22.227-27.495-10.271-8.3028 2.9739-3.6787 24.709 19.975-2.9739 3.6788-10.313-8.3372-22.227 27.495-4.1253-3.3348zm18.842 15.101 24.085-32.044 23.17 17.415-2.8422 3.7814-18.929-14.227-7.3766 9.8143 17.727 13.324-2.8258 3.7596-17.727-13.324-8.198 10.907 19.672 14.786-2.8422 3.7814-23.913-17.973zm29.962 22.355 22.618-33.096 14.674 10.028c2.9498 2.016 4.9892 3.8458 6.1181 5.4893 1.1288 1.6436 1.6379 3.5317 1.5275 5.6642-.1105 2.1324-.7881 4.1092-2.0326 5.9303-1.6046 2.3478-3.7171 3.8075-6.3377 4.3791-2.6207.5715-5.668-.0096-9.1418-1.7434.7783 1.3488 1.2833 2.4998 1.515 3.453.477 2.0482.6857 4.3436.6262 6.8862l-.3992 12.942-5.5084-3.7645.326-9.8786c.0784-2.8609.0637-5.101-.044-6.7202-.1078-1.6192-.3451-2.8632-.7117-3.7321-.3667-.8688-.8321-1.6175-1.3962-2.2458-.4247-.4447-1.2014-1.0528-2.3302-1.8243l-5.0794-3.4714-10.044 14.697-4.3796-2.9931zm17.015-15.496 9.414 6.4336c2.0016 1.368 3.7082 2.2308 5.1199 2.5883 1.4116.3576 2.722.2816 3.9313-.2278 1.2092-.5093 2.1789-1.2984 2.9093-2.3669 1.0696-1.5652 1.3809-3.2403.9338-5.0253-.4472-1.7849-1.8974-3.5156-4.3506-5.1922l-10.475-7.1587-7.4828 10.949zm17.296 38.459 21.41-33.889 4.4847 2.8333-21.41 33.889zm12.438 7.9134 20.138-34.661 25.062 14.561-2.3764 4.0902-20.475-11.896-6.1677 10.616 19.174 11.14-2.3627 4.0666-19.174-11.14-6.8544 11.798 21.279 12.363-2.3764 4.0903-25.866-15.028zm36.594 6.247 4.6585 1.8785c-.6978 1.8948-.9521 3.6111-.7629 5.1492.1892 1.538.9165 3.0736 2.1819 4.6068 1.2653 1.5332 2.9136 2.8163 4.9446 3.8492 1.8036.9173 3.5323 1.4591 5.1861 1.6253s3.0555-.0463 4.205-.6377c1.1494-.5913 2.0051-1.4395 2.5671-2.5443.5702-1.1211.7431-2.2654.5188-3.4328-.2244-1.1673-.9394-2.4155-2.145-3.7444-.7686-.8613-2.5936-2.5206-5.4749-4.978-2.8815-2.4573-4.8025-4.37-5.7633-5.7381-1.2516-1.7613-1.959-3.517-2.1223-5.2668-.1633-1.7497.1724-3.4452 1.007-5.0864.9173-1.8035 2.2865-3.229 4.1076-4.2764 1.8211-1.0473 3.9213-1.4772 6.3006-1.2897 2.3792.1875 4.7712.8927 7.176 2.1158 2.6484 1.3471 4.7672 2.9615 6.3564 4.8433 1.589 1.882 2.5064 3.9284 2.7522 6.1394.2457 2.211-.1238 4.3852-1.1086 6.5226l-4.7069-1.9645c.9049-2.3825.948-4.5079.1293-6.3764-.8188-1.8685-2.6011-3.501-5.3471-4.8976-2.8598-1.4544-5.2101-1.9902-7.0511-1.6075-1.8411.3828-3.1376 1.3135-3.8895 2.7921-.6529 1.2836-.727 2.5753-.2222 3.875.4884 1.2914 2.4329 3.349 5.8336 6.1727 3.4006 2.8237 5.6506 4.9242 6.7499 6.3013 1.5922 2.0164 2.51 4.0119 2.7533 5.9865.2432 1.9746-.1227 3.9205-1.0978 5.8378-.9669 1.901-2.4223 3.4156-4.3662 4.5437-1.944 1.128-4.1731 1.6406-6.6874 1.5378-2.5144-.1028-5.0471-.803-7.5981-2.1004-3.2334-1.6445-5.7032-3.4937-7.4093-5.5476-1.7061-2.0538-2.6993-4.3434-2.9796-6.8685s.1545-4.9985 1.3043-7.4201zm38.576 33.112 14.228-32.366-12.09-5.315 1.9037-4.3305 29.087 12.787-1.9037 4.3306-12.14-5.3371-14.228 32.366-4.8561-2.1348zm60.639-18.962 4.9761 1.8381-8.0253 21.725c-1.396 3.779-2.9321 6.6221-4.6082 8.5293s-3.8874 3.1454-6.6337 3.7147c-2.7463.5694-5.9321.1844-9.5572-1.1546-3.5226-1.3012-6.1796-2.9727-7.9712-5.0142-1.7916-2.0416-2.7414-4.3892-2.8494-7.0429s.5738-5.9726 2.0456-9.9569l8.0253-21.725 4.976 1.8381-8.0158 21.7c-1.2065 3.2661-1.792 5.785-1.7566 7.5568s.6379 3.3498 1.8075 4.7341c1.1696 1.3842 2.8232 2.4712 4.9607 3.2607 3.6593 1.3518 6.5734 1.4857 8.7422.4018 2.1687-1.0839 4.1248-3.9856 5.8682-8.7051l8.0158-21.7zm-.4993 42.243 11.4-38.431 13.238 3.927c2.9885.8865 5.2147 1.7464 6.6788 2.58 2.0516 1.16 3.6582 2.6348 4.8196 4.4244 1.5192 2.3141 2.386 4.9527 2.6004 7.916.2143 2.9632-.1866 6.1576-1.2027 9.583-.8657 2.9186-1.9738 5.404-3.3241 7.4563s-2.7775 3.6587-4.2816 4.8192c-1.5042 1.1605-3.0155 1.9767-4.5339 2.4484-1.5185.4718-3.2382.6605-5.1591.566-1.921-.0945-4.0437-.4865-6.368-1.1759l-13.868-4.1135zm6.4309-3.0266 8.2052 2.4339c2.5341.7516 4.592 1.1054 6.1738 1.0613 1.5818-.0442 2.9279-.3674 4.0383-.9698 1.5635-.8482 2.9837-2.1905 4.2605-4.0269s2.3454-4.2052 3.206-7.1063c1.1923-4.0196 1.4489-7.3043.7697-9.8541-.6793-2.5496-1.8538-4.4715-3.5235-5.7654-1.2077-.9287-3.3232-1.8414-6.3466-2.7382l-8.0742-2.395-8.7092 29.36zm33.371 14.296 9.6742-38.901 5.1479 1.2802-9.6742 38.901zm47.944-30.438 5.1985 1.0564-4.6121 22.696c-.8023 3.948-1.886 6.9924-3.2511 9.1332-1.3652 2.1408-3.3613 3.7023-5.9884 4.6846-2.6271.9821-5.8343 1.0884-9.6214.3188-3.68-.7478-6.5612-1.9936-8.6437-3.7375-2.0824-1.7439-3.3797-3.9189-3.8919-6.5249-.5121-2.606-.3452-5.9902.5006-10.152l4.6121-22.696 5.1984 1.0564-4.6066 22.669c-.6934 3.4121-.8873 5.9909-.5816 7.7364.3056 1.7456 1.1421 3.213 2.5095 4.4024s3.1676 2.0109 5.4006 2.4647c3.8229.7768 6.7232.4641 8.701-.9385 1.9777-1.4024 3.4675-4.5689 4.4695-9.4993l4.6066-22.67zm5.7834 41.886 5.4443-39.714 7.9104 1.0844 5.5455 29.408c.5079 2.7376.8714 4.7838 1.0905 6.1386.6495-1.383 1.6448-3.4085 2.9858-6.0766l13.297-26.329 7.0706.9693-5.4443 39.714-5.0659-.6944 4.5567-33.24-16.097 31.658-4.7409-.6499-6.8516-35.383-4.6347 33.809-5.0659-.6945zm62.871 7.2514 2.8985-39.981 5.2908.3836-2.8985 39.981zm14.536 1.1154 1.4868-40.058 5.4376.2019 19.873 32.232 1.1673-31.451 5.0825.1887-1.4868 40.058-5.4376-.2018-19.872-32.259-1.1683 31.478-5.0825-.1886zm56.039 1.25-1.1001-40.071 13.803-.3789c3.116-.0856 5.4993.0405 7.1498.3781 2.3105.4655 4.2956 1.3684 5.9555 2.7087 2.1628 1.7278 3.8062 3.9667 4.9303 6.7168 1.1241 2.7502 1.7351 5.911 1.8332 9.4826.0835 3.0432-.1978 5.7498-.8439 8.12s-1.5038 4.3404-2.5731 5.9107c-1.0693 1.5704-2.2524 2.8155-3.5492 3.7356-1.2969.9201-2.873 1.6335-4.7282 2.1403-1.8553.5068-3.9947.7935-6.4183.8601l-14.459.3969zm5.1729-4.8742 8.5554-.2349c2.6422-.0726 4.7082-.3755 6.1981-.9087 1.4898-.5333 2.6689-1.2587 3.5373-2.1761 1.2228-1.2918 2.1558-3.0088 2.7991-5.151s.9234-4.7257.8404-7.7506c-.1151-4.1912-.8914-7.3931-2.329-9.6058s-3.1509-3.6747-5.1399-4.386c-1.4363-.5076-3.7307-.7181-6.8832-.6317l-8.4187.2312.8405 30.614zm35.383 3.5338-2.7068-39.994 28.918-1.9572.3194 4.7197-23.626 1.599.8291 12.249 22.125-1.4974.3176 4.6924-22.125 1.4974.9214 13.613 24.553-1.6617.3194 4.7197-29.846 2.0199zm37.291-2.6444-4.2372-39.861 17.674-1.8787c3.5529-.3777 6.2919-.3068 8.217.2127 1.925.5195 3.5367 1.6269 4.8352 3.322 1.2984 1.6952 2.0642 3.6394 2.2974 5.8328.3006 2.8279-.3615 5.3089-1.9861 7.443-1.6247 2.1342-4.3215 3.6675-8.0904 4.5996 1.4671.5224 2.5978 1.0713 3.3923 1.6467 1.6911 1.2502 3.3382 2.8625 4.9413 4.8368l8.0868 10.112-6.6345.7052-6.1565-7.7324c-1.7951-2.229-3.2587-3.9249-4.3905-5.0878-1.1319-1.163-2.1191-1.9562-2.9615-2.38-.8425-.4237-1.6822-.6919-2.5191-.8046-.6117-.0633-1.5973-.0227-2.9568.1218l-6.1179.6504 1.8816 17.701-5.275.5607zm2.9078-22.83 11.338-1.2052c2.4109-.2563 4.2696-.7059 5.5762-1.349 1.3065-.643 2.2549-1.5504 2.8453-2.7222s.8172-2.4012.6804-3.6883c-.2004-1.8851-1.0495-3.3622-2.5471-4.4313-1.4978-1.069-3.724-1.4464-6.6786-1.1324l-12.616 1.341 1.4018 13.188zm63.893 14.162-22.192-36.819 5.6567-.9873 15.27 26.896c1.2273 2.1544 2.2947 4.1887 3.2024 6.1028.2345-2.2615.5677-4.5402.9998-6.8362l5.6602-30.549 5.3334-.9308-8.5698 42.188-5.3603.9355zm19.575-23.254c-1.4991-6.4826-.9321-11.96 1.7008-16.433 2.633-4.4725 6.7023-7.3454 12.208-8.6186 3.6053-.8338 7.0547-.7239 10.348.3293 3.2934 1.0534 6.0556 2.9452 8.2867 5.6754 2.2311 2.7304 3.7984 6.0491 4.702 9.9564.9158 3.9606.9359 7.6886.0604 11.184-.8757 3.4955-2.5929 6.3857-5.1516 8.6707-2.5588 2.2851-5.5344 3.8198-8.9266 4.6042-3.6764.8502-7.1674.7219-10.473-.3847-3.3057-1.1065-6.0597-3.0236-8.2621-5.7512s-3.6999-5.8052-4.4926-9.233zm5.3466-1.1522c1.0884 4.7065 3.2112 8.1214 6.3684 10.245 3.1572 2.1233 6.645 2.7434 10.464 1.8603 3.8895-.8995 6.7746-3.0073 8.6553-6.3236 1.8806-3.3163 2.2397-7.4875 1.0775-12.514-.7352-3.1792-1.9142-5.8299-3.537-7.9525-1.6228-2.1225-3.6197-3.5972-5.9906-4.4242-2.371-.8268-4.8441-.9425-7.4194-.3471-3.6587.8461-6.5161 2.8306-8.5724 5.9536s-2.4047 7.6238-1.0453 13.503zm43.053 9.6992-11.352-38.445 17.046-5.0332c3.4266-1.0117 6.1335-1.4356 8.1207-1.2717 1.9872.164 3.7721.9628 5.3548 2.3961 1.5827 1.4334 2.6863 3.2078 3.311 5.3232.8053 2.7273.6013 5.287-.6121 7.6791-1.2135 2.3922-3.5897 4.3863-7.1289 5.9825 1.5372.2494 2.7483.5856 3.6335 1.0084 1.8887.9249 3.7994 2.2138 5.7321 3.867l9.7769 8.4889-6.3987 1.8894-7.4493-6.4962c-2.1675-1.8689-3.9127-3.2734-5.2357-4.2133-1.3229-.9398-2.4369-1.5422-3.3419-1.8072-.9051-.265-1.7794-.3774-2.6229-.3375-.6131.048-1.5752.2655-2.8864.6527l-5.9005 1.7423 5.041 17.072-5.0875 1.5022zm-1.2544-22.98 10.936-3.2291c2.3252-.6866 4.0724-1.4638 5.2417-2.3318 1.1692-.8679 1.9386-1.9314 2.3081-3.1905.3695-1.259.371-2.5092.0045-3.7505-.5369-1.8182-1.6382-3.118-3.3041-3.8998-1.6658-.7815-3.9236-.7516-6.7733.0899l-12.168 3.5929zm46.544 9.0259-23.995-33.827 5.0972-1.9047 14.91 22.481c1.5782 2.3488 3.0647 4.7124 4.4594 7.0908-.5432-4.3702-.8443-6.8945-.9032-7.5731l-2.3288-28.028 5.9936-2.2396 12.481 16.996c3.11 4.209 5.7391 8.2764 7.8873 12.203-.4088-2.5522-.8033-5.5088-1.1833-8.8696l-3.1245-26.33 4.9947-1.8663 3.734 41.398-4.7898 1.7898-18.605-25.654c-1.5592-2.1418-2.5007-3.4636-2.8244-3.9654.2517 1.8715.4333 3.4772.5448 4.8172l2.7246 31.587-5.0715 1.8951zm42.829-16.616-16.678-36.452 26.357-12.059 1.9681 4.3016-21.533 9.8519 5.108 11.164 20.165-9.2263 1.9568 4.2768-20.165 9.2262 5.6768 12.408 22.378-10.239 1.9681 4.3016-27.202 12.446zm33.903-15.758-18.981-35.307 15.655-8.4161c3.147-1.6917 5.7098-2.6607 7.6885-2.907 1.9786-.2463 3.8892.1701 5.7318 1.2492s3.2861 2.59 4.3306 4.5328c1.3466 2.5048 1.6708 5.052.9728 7.6418-.6981 2.5898-2.6159 5.0281-5.7533 7.315 1.5556-.0705 2.81.0106 3.763.2432 2.038.5187 4.1721 1.3893 6.4023 2.6118l11.308 6.3078-5.8764 3.1592-8.6214-4.8338c-2.5042-1.3856-4.4999-2.403-5.9872-3.0522s-2.701-1.0108-3.6411-1.0849c-.9402-.0741-1.819-.0052-2.6364.2066-.5903.1725-1.4875.5824-2.6917 1.2297l-5.4189 2.9133 8.4289 15.679-4.6722 2.5118zm-5.9319-22.237 10.043-5.3992c2.1354-1.1479 3.6866-2.2665 4.6534-3.3554s1.5022-2.2874 1.6062-3.5955c.1039-1.3079-.1505-2.532-.7634-3.6719-.8977-1.6698-2.2418-2.7167-4.0324-3.1408-1.7905-.4241-3.9944.0674-6.6115 1.4744l-11.175 6.0077 6.2797 11.681zm41.166 2.9384-21.265-33.98 4.4967-2.8141 10.546 16.851 6.3287-27.411 6.0961-3.8149-5.6387 22.689 27.53 10.9-5.9338 3.7134-22.863-9.6269-2.1687 8.9052 7.3689 11.775-4.4967 2.8141zm22.765-29.595 3.8063-3.2775c1.3635 1.4892 2.7719 2.5027 4.2254 3.0401 1.4534.5376 3.1515.5958 5.0944.1749 1.9428-.4209 3.8391-1.2968 5.6887-2.6276 1.6425-1.1817 2.917-2.4692 3.8234-3.8625.9065-1.3932 1.3606-2.7362 1.3626-4.0288.0019-1.2926-.3591-2.4421-1.0831-3.4484-.7346-1.021-1.672-1.6995-2.8121-2.0358-1.1402-.3362-2.5773-.2736-4.3112.188-1.1179.2878-3.4296 1.1481-6.935 2.581s-6.0862 2.2624-7.7426 2.4884c-2.1393.304-4.0237.1272-5.6535-.5305-1.6297-.6577-2.9822-1.7337-4.0575-3.2283-1.1817-1.6424-1.8202-3.513-1.9153-5.6117-.0952-2.0987.4863-4.162 1.7445-6.1901s2.9822-3.8298 5.1722-5.4056c2.412-1.7352 4.8185-2.8772 7.2197-3.4259 2.4012-.5486 4.6405-.4248 6.7178.3711 2.0773.7961 3.8397 2.1219 5.2871 3.9774l-3.9049 3.2811c-1.7018-1.897-3.5706-2.9105-5.6065-3.0402-2.0358-.1297-4.3041.7051-6.8048 2.5043-2.6044 1.8737-4.1588 3.7164-4.6633 5.5278-.5044 1.8114-.2723 3.3904.6965 4.737.8411 1.169 1.9548 1.8274 3.3412 1.9752 1.3716.1585 4.092-.6254 8.1611-2.3516s6.9677-2.7618 8.6957-3.1069c2.5222-.4896 4.7163-.3896 6.5825.3001 1.8661.6898 3.4273 1.9077 4.6836 3.6538 1.2456 1.7312 1.9236 3.7193 2.0341 5.9641.1105 2.2449-.4568 4.4607-1.7016 6.6477-1.2449 2.1869-3.029 4.1162-5.3521 5.7876-2.9447 2.1186-5.7209 3.4648-8.3286 4.0384-2.6077.5737-5.0977.4059-7.47-.5036-2.3722-.9094-4.3705-2.4304-5.9947-4.563zm47.058-19.166-22.398-27.356-10.219 8.3667-2.9968-3.6601 24.584-20.129 2.9968 3.6602-10.261 8.4013 22.398 27.356-4.1044 3.3605zm15.235-12.404-16.007-39.845 4.1866-3.8898 39.304 18.199-4.427 4.1132-11.689-5.7114-12.28 11.409 5.0386 11.891-4.1265 3.8341zm-2.731-19.932 9.9558-9.2502-10.621-5.2853c-3.2303-1.602-5.8108-2.9867-7.7414-4.154 1.3756 2.2305 2.5852 4.5903 3.6288 7.0793l4.7781 11.61zm40.166-16.157-25.634-24.35-9.0958 9.5755-3.4298-3.2579 21.883-23.037 3.4298 3.2579-9.1335 9.6153 25.634 24.35-3.6534 3.846zm22.942-25.403-27.029-22.791-8.5136 10.097-3.6164-3.0494 20.482-24.29 3.6164 3.0493-8.5489 10.138 27.029 22.791-3.4195 4.0553zm-974.715-812.0432-22.7-17.451 3.476-4.5215 20.203 6.983c1.8778.6552 3.2756 1.155 4.1935 1.4992-.6275-.893-1.5309-2.228-2.7103-4.0052l-11.616-17.577 3.1069-4.0415 22.7 17.451-2.2261 2.8956-18.999-14.606 13.928 21.202-2.0832 2.7098-24.372-8.2906 19.325 14.856-2.2259 2.8956zm18.529-24.019-14.99-26.759 2.6095-3.1392 29.51 9.2914-2.7593 3.3194-8.8037-2.975-7.6534 9.2071 4.6588 7.9615-2.572 3.0941zm-3.7607-13.869 6.2051-7.4648-8.0082-2.771c-2.4351-.8389-4.3899-1.5834-5.8645-2.2334 1.1788 1.454 2.2519 3.0148 3.2192 4.6824zm27.791-14.457-18.85-16.806-6.278 7.0413-2.522-2.2486 15.103-16.94 2.5221 2.2486-6.304 7.0704 18.85 16.806-2.5216 2.8281zm11.544-12.815-20.656-19.828 14.337-14.936 2.4376 2.34-11.713 12.202 6.3265 6.0729 10.969-11.427 2.4235 2.3263-10.969 11.427 7.031 6.7491 12.173-12.681 2.4376 2.34-14.797 15.415zm18.564-19.193-19.793-20.69 9.1734-8.7761c1.8441-1.7641 3.4238-2.9195 4.7389-3.466 1.3153-.5464 2.7099-.6238 4.1839-.232 1.4741.3918 2.7557 1.157 3.8449 2.2954 1.404 1.4678 2.1125 3.1596 2.1255 5.0754.0128 1.9158-.8429 3.9598-2.5671 6.1318 1.0575-.3449 1.9365-.528 2.6368-.5495 1.5019-.0312 3.1369.1616 4.905.5783l8.9861 2.1882-3.4436 3.2945-6.8559-1.6852c-1.9879-.4768-3.5556-.797-4.7032-.9605-1.1475-.1636-2.052-.1813-2.7133-.0531-.6613.1281-1.2532.3429-1.7755.6444-.3736.2312-.9131.6844-1.6187 1.3594l-3.1755 3.038 8.7897 9.1875-2.738 2.6193zm-8.3199-14.178 5.8851-5.6302c1.2513-1.1971 2.1061-2.2626 2.5641-3.1965.4582-.9337.5985-1.8608.4208-2.7811-.1777-.9202-.586-1.7144-1.225-2.3824-.9362-.9785-2.061-1.4431-3.3744-1.3939s-2.737.8074-4.2706 2.2746l-6.5483 6.2647zm29.808-6.0202-19.117-21.317 2.8209-2.5297 19.117 21.316-2.8209 2.5298zm5.3539-4.9765-10.007-28.993 3.1246-2.6266 27.394 14.377-3.3041 2.7774-8.1365-4.4891-9.1649 7.7039 3.1729 8.6616-3.0799 2.5889zm-1.2414-14.316 7.4305-6.2461-7.3898-4.1472c-2.2477-1.2574-4.0395-2.3367-5.3755-3.238.9023 1.64 1.6816 3.3665 2.3379 5.1792zm24.09-4.6699-17.456-22.696 3.0034-2.31 15.396 20.018 11.178-8.5973 2.06 2.6783-14.181 10.907zm11.39-19.454-2.0618-2.8717 8.7736-6.2992 2.0618 2.8716zm27.234-42.349 3.2106-2.0122 8.7851 14.018c1.5282 2.4384 2.4659 4.5475 2.8131 6.3275.3472 1.7801.0828 3.5709-.7935 5.3725-.8763 1.8015-2.4839 3.4352-4.823 4.9011-2.2728 1.4244-4.3773 2.1979-6.3136 2.3204-1.9363.1224-3.6784-.3647-5.2263-1.4614-1.5478-1.0967-3.1273-2.9305-4.7385-5.5012l-8.785-14.018 3.2106-2.0122 8.7747 14.001c1.3207 2.1073 2.4898 3.5375 3.5072 4.2906 1.0175.753 2.1728 1.1007 3.466 1.0432 1.2931-.0575 2.6293-.5184 4.0085-1.3828 2.361-1.4797 3.7082-3.0692 4.0415-4.7687s-.4542-4.0717-2.3627-7.1169zm23.839 19.053-13.737-25.122 3.4102-1.8648 23.981 12.509-10.785-19.724 3.1874-1.7429 13.737 25.122-3.4102 1.8648-23.99-12.526 10.795 19.741zm25.488-13.728-12.151-25.927 8.9312-4.1856c2.0161-.9449 3.6127-1.5421 4.7899-1.7919 1.6458-.3543 3.2034-.3293 4.6727.0749 1.9091.5145 3.624 1.5119 5.1446 2.9922 1.5205 1.4804 2.8223 3.376 3.9054 5.6868.9228 1.969 1.5106 3.8216 1.7636 5.5581.2529 1.7364.2533 3.2713.0011 4.6047-.2524 1.3332-.672 2.4862-1.2586 3.4586-.5869.9724-1.4155 1.8893-2.4858 2.7504-1.0704.8611-2.3896 1.6591-3.9577 2.394l-9.3555 4.3845zm1.997-4.6675 5.5355-2.5943c1.7096-.8012 2.9762-1.5889 3.7996-2.3631.8235-.7742 1.3887-1.5855 1.6957-2.4339.4322-1.1948.5535-2.5853.3637-4.1716s-.7434-3.3581-1.6606-5.3152c-1.2709-2.7117-2.6926-4.587-4.2652-5.626-1.5726-1.0389-3.1116-1.5075-4.617-1.406-1.0854.0773-2.6479.5939-4.6876 1.5498l-5.4471 2.5528 9.283 19.808zm-189.5059 248.2091-27.835-10.138 2.2224-3.1887 17.889 7.1588a97.7357 97.7357 0 0 1 5.4994 2.3568c-2.0934-2.3477-3.2952-3.7091-3.6053-4.0839l-12.748-15.526 2.6132-3.7494 14.235 4.9214c3.5365 1.2109 6.733 2.534 9.5893 3.9692-1.2763-1.334-2.7084-2.9114-4.2962-4.7322l-12.526-14.205 2.1776-3.1246 19.001 22.813-2.0883 2.9965-21.349-7.5229c-1.7858-.6257-2.8758-1.0203-3.2698-1.1838.9077.9977 1.6664 1.8676 2.2759 2.6099l14.425 17.458-2.2113 3.1727zm18.951-26.787-22.797-17.324 12.526-16.484 2.6903 2.0444-10.234 13.467 6.9821 5.306 9.584-12.612 2.6747 2.0326-9.584 12.612 7.7597 5.8969 10.636-13.995 2.6902 2.0444-12.928 17.012zm16.228-21.204-22.119-18.182 8.0615-9.8073c1.6206-1.9715 3.0512-3.307 4.292-4.0064 1.2406-.6994 2.6161-.9424 4.1263-.7292 1.5103.2132 2.8739.8201 4.091 1.8205 1.5692 1.2898 2.4744 2.8851 2.7155 4.7857.2412 1.9006-.3646 4.0321-1.8175 6.3942 1.0088-.4686 1.8597-.7553 2.5525-.8599 1.4873-.2101 3.1337-.2137 4.939-.0108l9.1827 1.1011-3.0261 3.6815-7.0079-.8557c-2.0307-.2364-3.6254-.3674-4.7842-.3929-1.1589-.0256-2.059.0647-2.7003.2707-.6414.2061-1.2033.49-1.686.8516-.3434.2741-.825.7883-1.4451 1.5428l-2.7905 3.3948 9.8223 8.074-2.406 2.927zm-9.9512-13.085 5.1719-6.2917c1.0996-1.3378 1.8212-2.4976 2.1647-3.4794s.3722-1.9189.0861-2.8115c-.286-.8925-.7861-1.6322-1.5004-2.2193-1.0461-.8599-2.2183-1.1871-3.5165-.9816-1.2981.2055-2.621 1.128-3.9688 2.7675l-5.7547 7.0009zm28.273-8.9965-21.361-19.067 2.5231-2.8267 10.593 9.4554-1.1247-20.063 3.4206-3.8322.6565 16.687 21.056 1.9867-3.3295 3.7302-17.601-2.0445.2882 6.5405 7.4021 6.607-2.5232 2.8268zm16.411-18.315-2.5274-2.4437-2.9893-23.293c-.2119-1.6539-.3385-3.1527-.3796-4.4965l-11.105 11.486-2.4292-2.3486 14.255-14.743 2.4291 2.3486 3.1071 25.363.2379 2.6481 12.707-13.143 2.4292 2.3486-15.735 16.274zm18.715-19.209-19.725-20.755 15.007-14.262 2.3277 2.4492-12.26 11.652 6.0413 6.3566 11.482-10.912 2.3143 2.4351-11.482 10.912 6.714 7.0645 12.742-12.11 2.3276 2.4493-15.488 14.72zm14.935-52.228 2.8705-2.4732 10.798 12.533c1.8783 2.18 3.1233 4.1236 3.735 5.831.6118 1.7074.6202 3.5176.0257 5.4307-.5946 1.9131-1.9376 3.7705-4.0288 5.5724-2.0321 1.7509-3.9959 2.8328-5.8916 3.2458-1.8956.413-3.6913.1942-5.3868-.6567-1.6956-.8508-3.5335-2.4253-5.5139-4.7237l-10.798-12.533 2.8706-2.4732 10.786 12.518c1.6233 1.8841 2.9947 3.1216 4.114 3.7126 1.1194.591 2.3139.7606 3.5836.5087 1.2698-.2518 2.5212-.9089 3.7542-1.9714 2.1109-1.8189 3.2031-3.5934 3.2763-5.3236s-1.0631-3.9567-3.4089-6.6793l-10.786-12.518zm30.221-1.886-2.0471-2.6636 9.6049-7.4066 6.4746 8.4243c-.5717 2.3116-1.4141 4.3672-2.5271 6.1669-1.1129 1.7997-2.4954 3.3343-4.1472 4.6039-2.23 1.7138-4.623 2.7935-7.1791 3.2391-2.5561.4455-4.9931.122-7.3108-.9706s-4.3335-2.7538-6.0475-4.9837c-1.6979-2.2093-2.8209-4.6266-3.3688-7.2519-.5479-2.6251-.3117-5.0688.7086-7.3311 1.0203-2.2621 2.6609-4.262 4.9218-5.9998 1.6415-1.2616 3.3299-2.1364 5.0651-2.6244 1.7353-.4879 3.3447-.5466 4.8284-.176 1.4836.3706 3.0087 1.1691 4.5754 2.3954l-2.1388 2.8262c-1.2293-.8944-2.3508-1.4775-3.3645-1.7495-1.0137-.2719-2.1431-.2455-3.3881.079-1.2448.3246-2.4403.9273-3.5863 1.808-1.373 1.0553-2.3996 2.1768-3.0797 3.3646s-1.0653 2.3586-1.156 3.512c-.0905 1.1535.0073 2.269.2934 3.3464.501 1.8484 1.3822 3.5934 2.6439 5.2349 1.5552 2.0234 3.205 3.4487 4.9492 4.2759s3.5361 1.0594 5.3757.6964c1.8396-.3628 3.5079-1.1195 5.0049-2.2701 1.3008-.9998 2.3783-2.2261 3.2322-3.679.854-1.4529 1.3829-2.7092 1.5866-3.769l-3.2492-4.2276zm20.908-1.5766-16.234-23.586 3.1212-2.1483 14.318 20.803 11.616-7.9951 1.9157 2.7834-14.737 10.143zm18.592-12.678-15.023-24.375 17.625-10.862 1.7728 2.8765-14.399 8.8743 4.6011 7.4655 13.485-8.3106 1.7625 2.8598-13.485 8.3107 5.1135 8.297 14.964-9.2227 1.7728 2.8766-18.19 11.211zm22.861-13.913-13.543-25.228 3.3385-1.7921 5.5611 10.36 13.113-7.0393-5.5612-10.359 3.3384-1.7923 13.543 25.228-3.3384 1.7921-6.3834-11.891-13.113 7.0393 6.3834 11.891-3.3384 1.7921zm25.512-13.474-11.896-26.044 11.548-5.2746c2.3214-1.0603 4.193-1.6325 5.6148-1.7165 1.4216-.0839 2.7643.3012 4.0278 1.1556 1.2634.8544 2.2225 1.9982 2.8771 3.4312.8439 1.8476.9572 3.6783.3398 5.4919-.6174 1.8137-2.0971 3.463-4.4392 4.948 1.1121.0216 2.0024.1376 2.6709.3475 1.4287.464 2.9096 1.1833 4.4426 2.1578l7.7682 5.0193-4.3349 1.98-5.9216-3.8443c-1.7208-1.1035-3.0962-1.921-4.1264-2.4526-1.03-.5315-1.8784-.8454-2.5451-.9417-.6667-.0962-1.2963-.0878-1.8888.0254-.4287.0956-1.0871.3463-1.9754.7521l-3.9973 1.8258 5.2828 11.566-3.4466 1.5742zm-3.1995-16.124 7.4082-3.3839c1.5752-.7195 2.7326-1.445 3.4722-2.1764.7395-.7315 1.1765-1.561 1.3112-2.4885.1345-.9275.0097-1.8117-.3743-2.6527-.5627-1.2316-1.4723-2.0401-2.7289-2.4252-1.2567-.3851-2.8504-.1367-4.7809.7451l-8.2432 3.7653zm29.608 4.3154-10.223-26.746 19.338-7.3921 1.2065 3.1561-15.799 6.0393 3.1312 8.1914 14.796-5.6557 1.1995 3.1379-14.796 5.6558 3.4799 9.1036 16.419-6.2763 1.2065 3.1562-19.959 7.6292zm369.1357-29.3793 12.15-25.927 3.5196 1.6492 4.0789 26.738 9.5391-20.356 3.2895 1.5415-12.15 25.927-3.5195-1.6492-4.0706-26.755-9.5473 20.374-3.2896-1.5415zm23.361 10.958 22.838-20.474 3.6334 1.8605-2.6197 30.827-3.842-1.9673.9798-9.2411-10.657-5.457-6.7514 6.2855-3.5812-1.8338zm12.713-6.6999 8.6401 4.4244.9544-8.4202c.2867-2.5595.5861-4.6297.8982-6.2107-1.1612 1.468-2.4499 2.8562-3.8658 4.1645zm20.182 23.958 12.274-22.07-8.2444-4.585 1.6423-2.9529 19.834 11.031-1.6422 2.9529-8.2785-4.604-12.274 22.07-3.3114-1.8416zm45.892-6.3221 3.2391 1.9662-8.5846 14.141c-1.4933 2.4598-2.9574 4.2443-4.3922 5.3534-1.435 1.1092-3.154 1.6764-5.1572 1.7018s-4.1847-.6782-6.5443-2.1106c-2.2929-1.3919-3.9285-2.9256-4.9069-4.601-.9783-1.6753-1.3247-3.4508-1.0393-5.3262.2855-1.8755 1.2154-4.1098 2.7897-6.7032l8.5845-14.141 3.239 1.9662-8.5744 14.125c-1.2905 2.1259-2.044 3.8125-2.2603 5.0597-.2164 1.2472-.0087 2.4357.623 3.5656.6317 1.1298 1.6432 2.1171 3.0345 2.9617 2.3819 1.4459 4.4071 1.9366 6.0753 1.4718 1.6683-.4649 3.4348-2.2333 5.2998-5.3053l8.5743-14.125zm-6.2243 29.866 15.919-23.8 10.552 7.0583c2.1213 1.4189 3.5909 2.7113 4.4089 3.8772.818 1.166 1.1951 2.5109 1.1314 4.0348-.0638 1.5239-.5335 2.9406-1.4095 4.2502-1.1294 1.6884-2.6278 2.746-4.4955 3.1729-1.8678.4268-4.0485.0335-6.542-1.1801.5655.9579.9344 1.7764 1.1068 2.4555.3552 1.4596.5206 3.0976.4961 4.914l-.1929 9.2465-3.9612-2.6496.1625-7.0581c.0357-2.044.0092-3.6438-.0792-4.7996-.0886-1.1558-.2669-2.0426-.535-2.6606-.268-.6179-.6059-1.1493-1.0133-1.5941-.3064-.3146-.8655-.7435-1.6772-1.2865l-3.6527-2.4432-7.0692 10.568-3.1494-2.1066zm12.043-11.189 6.7698 4.5282c1.4394.9629 2.6645 1.5669 3.6753 1.8122 1.0108.2454 1.9462.1818 2.8063-.1907.8601-.3724 1.5471-.9429 2.0612-1.7113.7528-1.1256.9632-2.3242.6312-3.596-.3322-1.2717-1.3804-2.4975-3.1444-3.6775l-7.5328-5.0385zm16.267 19.184 3.0635 1.8676c-.7129 1.2538-1.0925 2.4336-1.1386 3.5395-.0462 1.106.287 2.2729.9997 3.501s1.7244 2.3246 3.035 3.2897c1.164.857 2.3188 1.4405 3.4649 1.7507 1.146.3101 2.1585.3241 3.0376.0415s1.581-.7803 2.106-1.4933c.5327-.7234.7881-1.5096.7663-2.3585-.0218-.8487-.38-1.8118-1.0744-2.889-.4411-.6967-1.5335-2.079-3.2771-4.147-1.7437-2.068-2.8741-3.6401-3.3914-4.7163-.6764-1.3872-.97-2.707-.8808-3.9592s.5236-2.4077 1.3034-3.4667c.8569-1.1638 1.9881-2.0085 3.3937-2.534 1.4055-.5255 2.9357-.5833 4.5904-.1734s3.258 1.186 4.8099 2.3286c1.7091 1.2584 3.0137 2.6433 3.9139 4.1549.9 1.5117 1.3077 3.0608 1.2228 4.6476-.085 1.5867-.5992 3.0756-1.5426 4.4669l-3.0875-1.9337c.9157-1.5733 1.1942-3.066.8353-4.4783-.3588-1.4122-1.4243-2.7708-3.1962-4.0754-1.8455-1.3587-3.4393-2.0106-4.7812-1.9558-1.3421.0549-2.3643.5594-3.0668 1.5136-.61.8284-.8129 1.7298-.6089 2.7046.1933.9671 1.3235 2.6441 3.3903 5.0307 2.0667 2.3868 3.4071 4.1296 4.021 5.2283.8866 1.6068 1.3004 3.1202 1.2414 4.54-.0591 1.4198-.5441 2.7484-1.4551 3.9857-.9032 1.2268-2.1056 2.1241-3.6071 2.6922-1.5016.5679-3.1323.6689-4.892.3031-1.7599-.366-3.4629-1.155-5.1091-2.367-2.0867-1.5363-3.6111-3.1277-4.5736-4.7742-.9626-1.6466-1.3952-3.3758-1.2979-5.188.0972-1.8121.6923-3.5043 1.7852-5.0766zm22.68 28.711 15.854-19.657-7.3428-5.9224 2.1213-2.6301 17.665 14.248-2.1212 2.63-7.3734-5.9469-15.854 19.657-2.9494-2.3789zm46.384 1.9553 2.8301 2.5194-11 12.356c-1.9134 2.1492-3.676 3.6396-5.2878 4.471-1.6117.8314-3.4051 1.0785-5.3798.7413-1.9748-.3373-3.9931-1.4236-6.0548-3.2591-2.0035-1.7835-3.3349-3.5876-3.9941-5.4124-.6593-1.8247-.6791-3.6335-.0592-5.4264s1.9385-3.8223 3.9557-6.0884l11-12.356 2.8302 2.5194-10.987 12.341c-1.6537 1.8575-2.6997 3.38-3.138 4.5675s-.449 2.394-.0319 3.6195c.4169 1.2254 1.2333 2.3793 2.4489 3.4615 2.0812 1.8528 3.9843 2.7015 5.7091 2.546 1.7249-.1554 3.782-1.5753 6.1716-4.2595zm-11.587 28.235 20.201-20.292 6.99 6.9586c1.578 1.5708 2.6858 2.8666 3.3234 3.8871.8963 1.4251 1.406 2.8971 1.5292 4.416.1701 1.9699-.18 3.9226-1.0502 5.8581-.8703 1.9355-2.2057 3.8075-4.0062 5.6162-1.5342 1.5411-3.0737 2.7277-4.6186 3.5598s-2.9869 1.3578-4.3261 1.5773c-1.3391.2193-2.566.2198-3.6806.0014-1.1145-.2185-2.2596-.6832-3.4351-1.394s-2.3769-1.6772-3.6042-2.899l-7.3223-7.2893zm5.0692.2786 4.3324 4.313c1.3381 1.3319 2.5117 2.2523 3.5211 2.7611 1.0093.5087 1.9652.762 2.8675.76 1.2705-.0029 2.6185-.365 4.044-1.0864 1.4254-.7213 2.9007-1.848 4.4257-3.3798 2.1128-2.1224 3.388-4.1002 3.8259-5.9334.4378-1.8332.3513-3.4396-.2594-4.8194-.4444-.9934-1.4646-2.2847-3.061-3.8739l-4.2633-4.244-15.433 15.503zm15.641 20.798 21.001-19.463 2.5755 2.7791-21.001 19.463zm41.131 3.3615 2.4571 2.8844-12.593 10.728c-2.1905 1.866-4.1412 3.1-5.8519 3.7021-1.7108.6021-3.521.6004-5.4307-.0049-1.9098-.6054-3.7597-1.9587-5.5497-4.06-1.7394-2.0419-2.8103-4.0118-3.2126-5.9097-.4023-1.898-.1733-3.6923.6869-5.383.8604-1.6908 2.4453-3.5198 4.7548-5.4872l12.593-10.728 2.4571 2.8844-12.578 10.715c-1.8931 1.6127-3.1384 2.9771-3.7357 4.0932-.5973 1.116-.7735 2.3096-.5289 3.5807.2447 1.2711.8947 2.5262 1.9503 3.7651 1.8068 2.1212 3.5752 3.2232 5.3051 3.3062 1.7298.0829 3.9626-1.0408 6.6983-3.3712l12.578-10.715zm-15.394 26.26 22.998-17.057 3.3973 4.5808-12.246 17.52c-1.1442 1.6268-2.0074 2.8344-2.5898 3.6229 1.0305-.3591 2.5619-.8626 4.594-1.5106l20.085-6.3611 3.0367 4.0945-22.998 17.057-2.1756-2.9336 19.249-14.276-24.205 7.5929-2.0361-2.7454 14.645-21.172-19.578 14.52-2.1757-2.9335zm-909.6579 204.1856 27.965 6.1482-.8137 3.7007-24.665-5.4227-3.0279 13.773-3.3001-.7255zm-4.7684 21.991 28.162 5.1698-3.7381 20.363-3.3234-.6101 3.0539-16.636-8.6254-1.5834-2.86 15.58-3.3041-.6066 2.86-15.58-9.586-1.7597-3.1738 17.289-3.3234-.6101zm-4.7309 26.337 28.355 3.9756-.5261 3.7523-11.644-1.6325-2.0664 14.739 11.644 1.6326-.5261 3.7523-28.356-3.9755.5261-3.7524 13.365 1.8739 2.0665-14.739-13.365-1.874.5261-3.7523zm-3.871 28.59 28.511 2.6373-1.1693 12.641c-.2351 2.5411-.6698 4.4494-1.3042 5.7245-.6346 1.2751-1.6367 2.2481-3.0063 2.9191-1.3697.671-2.839.9339-4.4079.7888-2.0226-.1871-3.667-.9996-4.9331-2.4374-1.2662-1.4378-1.9608-3.542-2.0837-6.3124-.5721.9539-1.1155 1.6686-1.6302 2.1441-1.1132 1.0085-2.4739 1.9353-4.0821 2.7804l-8.2185 4.2415.4389-4.7454 6.2807-3.2243c1.8134-.9438 3.2068-1.7302 4.1805-2.3594.9735-.6291 1.6678-1.209 2.083-1.7394.4153-.5304.7212-1.0807.9178-1.651.1303-.4195.2405-1.1154.3304-2.0878l.4047-4.3758-12.661-1.1712.349-3.773zm15.579 5.2463-.7503 8.1099c-.1594 1.7244-.1059 3.0893.1607 4.0948.2666 1.0054.7688 1.7971 1.5064 2.3754.7376.5782 1.5667.9099 2.4872.9951 1.3484.1247 2.5023-.2622 3.4615-1.1607.9593-.8986 1.5366-2.4046 1.7321-4.5179l.8347-9.024zm-18.075 23.574 28.605 1.255-.9075 20.683-3.3757-.1481.7414-16.898-8.7611-.3845-.6943 15.825-3.3561-.1472.6943-15.825-9.7367-.4273-.7706 17.561-3.3756-.1481.9366-21.347zm-1.089 37.72 28.621-.832.2866 9.8591c.0646 2.2256-.0226 3.9281-.2619 5.1074-.3297 1.6509-.9725 3.0699-1.9278 4.2571-1.2317 1.5468-2.8291 2.7232-4.7921 3.5294-1.9631.8061-4.2202 1.2462-6.7712 1.3203-2.1735.0632-4.1072-.1346-5.8009-.5934-1.6938-.4588-3.102-1.0692-4.225-1.8311-1.1229-.762-2.0135-1.6056-2.6723-2.5308-.6587-.9253-1.1701-2.0502-1.5342-3.3748-.3641-1.3247-.5714-2.8525-.6218-4.5836zm3.4876 3.6892.1776 6.1107c.0548 1.8873.2736 3.3627.6562 4.4262.3826 1.0636.9021 1.905 1.5584 2.5242.9242.8719 2.1516 1.5364 3.6825 1.9935 1.5308.457 3.3766.6541 5.5371.5913 2.9936-.087 5.2797-.6453 6.8586-1.6746 1.5788-1.0294 2.6211-2.2548 3.1268-3.6764.361-1.0265.5087-2.6656.4433-4.9173l-.1748-6.0131zm-2.4491 25.278 28.53-2.4226 1.7517 20.629-3.3668.2859-1.4311-16.853-8.7381.742 1.3403 15.783-3.3474.2842-1.3402-15.783-9.7111.8245 1.4873 17.515-3.3668.2859-1.808-21.29zm2.4018 26.595 28.34-4.084 1.8109 12.566c.3639 2.526.3861 4.483.0665 5.8709-.3197 1.3879-1.0672 2.5678-2.2426 3.5396-1.1756.9719-2.543 1.5702-4.1024 1.7949-2.0105.2897-3.7991-.1169-5.3655-1.2198-1.5666-1.1029-2.7328-2.9872-3.4983-5.6526-.3339 1.0611-.6956 1.8828-1.0853 2.4652-.8473 1.2403-1.9545 2.4588-3.3212 3.6556l-7.0029 6.041-.6797-4.717 5.3557-4.5999c1.5433-1.3407 2.715-2.4303 3.515-3.2692.8-.8388 1.34-1.5646 1.62-2.1771.2802-.6126.4492-1.2192.5074-1.8196.029-.4383-.0262-1.1407-.1655-2.1073l-.6268-4.3496-12.585 1.8136-.5405-3.7503zm16.373 1.4688 1.1617 8.0612c.247 1.7141.6173 3.0288 1.111 3.9444.4937.9155 1.1667 1.5684 2.0188 1.9586s1.7357.5195 2.6507.3876c1.3404-.1932 2.3721-.8385 3.0954-1.9359.7233-1.0975.9336-2.6966.6308-4.7972l-1.2926-8.9698zm-9.9517 37.793 27.888-6.4901.8588 3.6905-13.83 3.2184 17.053 10.63 1.1643 5.0029-14.022-9.0693-13.746 16.073-1.1334-4.8699 11.804-13.215-5.5139-3.5296-9.6637 2.249-.8589-3.6905zm19.227 21.004c4.5481-1.3791 8.479-1.2375 11.793.4246 3.3136 1.6621 5.556 4.4245 6.7272 8.2874.767 2.5294.8541 4.993.2613 7.3906-.5929 2.3975-1.8088 4.4567-3.6476 6.1777-1.839 1.7208-4.1291 2.9969-6.8704 3.8282-2.7788.8424-5.4347 1.0355-7.9677.579-2.5331-.4565-4.6753-1.5418-6.4263-3.2559-1.7511-1.7141-2.9875-3.7611-3.7091-6.1411-.7821-2.5794-.858-5.0735-.2278-7.4824.6303-2.4089 1.8646-4.4635 3.7029-6.1638 1.8383-1.7004 3.9599-2.9151 6.3648-3.6443zm1.0774 3.7552c-3.3021 1.0012-5.6341 2.6777-6.9959 5.0295-1.3619 2.3518-1.6367 4.8672-.8244 7.5463.8275 2.7289 2.4679 4.6839 4.9214 5.8654 2.4536 1.1813 5.4435 1.2374 8.97.1682 2.2304-.6762 4.0631-1.6436 5.498-2.9018 1.4348-1.2583 2.3902-2.7521 2.8659-4.4815s.4396-3.4974-.1081-5.3042c-.7784-2.5668-2.3296-4.5082-4.6539-5.824-2.3242-1.3158-5.5485-1.3485-9.673-.0979zm-4.8404 31.044 26.76-10.186 1.3827 3.6325-15.66 22.052 21.01-7.9972 1.2924 3.3952-26.76 10.186-1.3826-3.6325 15.678-22.059-21.028 8.0042-1.2923-3.3952zm18.351 21.977 1.7684 3.1217c-1.2327.7488-2.1382 1.595-2.7165 2.5389-.5782.9439-.8546 2.1256-.8292 3.5454.0254 1.4197.3761 2.8699 1.0519 4.3505.6001 1.3148 1.3254 2.3864 2.176 3.2149.8504.8284 1.7284 1.3329 2.6339 1.5136s1.7609.0872 2.5664-.2805c.8173-.3731 1.4228-.9357 1.8166-1.688.3937-.7522.5492-1.7679.4664-3.0468-.0466-.8233-.3288-2.5624-.8464-5.2173-.5177-2.655-.7408-4.5784-.6695-5.7704.0838-1.5411.4691-2.837 1.1561-3.8877.6869-1.0506 1.6286-1.849 2.825-2.3951 1.3148-.6002 2.714-.7881 4.1977-.5636 1.4837.2246 2.8488.9182 4.0953 2.0812 1.2465 1.1629 2.2697 2.6209 3.07 4.3739.8812 1.9308 1.3476 3.7755 1.3989 5.534.0512 1.7586-.3461 3.3105-1.1921 4.6556-.8459 1.345-2.0194 2.396-3.5204 3.1527l-1.7572-3.1912c1.5654-.9293 2.5347-2.098 2.9081-3.5065.3732-1.4086.103-3.1137-.8107-5.1155-.9516-2.0847-2.027-3.4296-3.2263-4.0343-1.1993-.6048-2.3379-.6611-3.4157-.1691-.9358.4272-1.5517 1.1162-1.8475 2.067-.3014.9391-.1296 2.954.5154 6.0446.645 3.0907.9685 5.2653.9705 6.524-.0068 1.8351-.3813 3.3587-1.1234 4.5706-.7423 1.2118-1.8122 2.1368-3.2099 2.7748-1.3859.6326-2.8729.8319-4.4612.5979-1.5882-.2341-3.0621-.9389-4.4218-2.1145-1.3597-1.1758-2.4639-2.6934-3.3128-4.5531-1.076-2.3572-1.634-4.4891-1.6743-6.3959-.0402-1.9068.423-3.6282 1.3893-5.1642s2.3093-2.7252 4.029-3.5674zm6.8697 35.647 22.316-11.821-4.4158-8.3363 2.9859-1.5816 10.624 20.055-2.9859 1.5817-4.434-8.3708-22.316 11.821-1.7736-3.3483zm8.1782 15.167 24.447-14.905 6.6086 10.84c1.3285 2.179 2.1189 3.9694 2.3711 5.3711.2523 1.4017.0293 2.7805-.6691 4.1366-.6983 1.356-1.72 2.444-3.0652 3.2641-1.7343 1.0574-3.5386 1.3873-5.4128.9898-1.8741-.3976-3.6875-1.6711-5.4401-3.8202.1106 1.1068.1013 2.0046-.0278 2.6933-.291 1.4737-.8293 3.0295-1.6149 4.6675l-4.0613 8.3092-2.4807-4.069 3.1138-6.3361c.8913-1.8397 1.5397-3.3026 1.9451-4.3885.4055-1.086.6165-1.9656.6329-2.639.0165-.6734-.0667-1.2975-.2495-1.8723-.1458-.4144-.4729-1.0384-.9812-1.8722l-2.2877-3.7521-10.856 6.6188zm15.63-5.0918 4.2397 6.954c.9015 1.4786 1.7592 2.5417 2.5734 3.1891.814.6474 1.6895.9829 2.6265 1.0064.9369.0235 1.8001-.2053 2.5895-.6867 1.1562-.705 1.8508-1.7041 2.084-2.9976.2331-1.2936-.2028-2.8464-1.3076-4.6585l-4.7176-7.7377zm33.794 28.577 2.1741 3.1032-13.548 9.4925c-2.3569 1.6512-4.4152 2.6958-6.175 3.1339-1.7599.438-3.5619.2658-5.4061-.517-1.8441-.7827-3.5581-2.3044-5.1421-4.5652-1.5391-2.1967-2.4195-4.2589-2.641-6.1863-.2217-1.9275.1755-3.6922 1.1914-5.2944 1.0158-1.602 2.7662-3.2735 5.2509-5.0144l13.548-9.4925 2.1742 3.1033-13.533 9.4812c-2.0368 1.4271-3.4051 2.6679-4.1049 3.7227-.6999 1.0546-.988 2.2263-.8642 3.5148.1237 1.2886.6526 2.5993 1.5865 3.9324 1.5989 2.282 3.2555 3.5459 4.9698 3.7916 1.7142.2457 4.0431-.6625 6.9863-2.7247zm-17.558 24.466 22.441-17.783 2.3534 2.9696-11.129 8.819 19.96 2.3249 3.1903 4.0258-16.553-2.2084-5.5603 20.405-3.1054-3.9187 5.026-16.992-6.4933-.8353-7.7762 6.1624-2.3533-2.9697zm21.662 26.408 18.951-16.692-6.2354-7.0791 2.5355-2.2333 15.001 17.031-2.5356 2.2333-6.2612-7.1084-18.951 16.692-2.5044-2.8433zm11.958 13.201 20.815-19.661 2.6019 2.7545-20.815 19.661zm16.054-3.127c3.3234-3.3974 6.8373-5.1649 10.542-5.3024 3.7045-.1375 6.9996 1.205 9.8851 4.0276 1.8895 1.8484 3.1513 3.966 3.7854 6.353.6339 2.387.559 4.7772-.2248 7.1707-.784 2.3934-2.1775 4.614-4.1806 6.6617-2.0304 2.0758-4.2658 3.523-6.706 4.3417s-4.8402.8981-7.2.2382c-2.3599-.6599-4.4287-1.8595-6.2065-3.5985-1.9268-1.8848-3.1936-4.0347-3.8003-6.4496s-.5134-4.8099.2799-7.1851c.7933-2.375 2.0686-4.4608 3.8259-6.2573zm2.7514 2.7734c-2.4128 2.4667-3.6503 5.0585-3.7124 7.7755-.0621 2.7169.9074 5.0541 2.9087 7.0118 2.0384 1.994 4.4172 2.9184 7.1366 2.7734 2.7192-.1451 5.3672-1.5347 7.944-4.1688 1.6298-1.6662 2.7709-3.396 3.4232-5.1895.6524-1.7935.7711-3.5627.3559-5.3075-.4152-1.745-1.2976-3.2775-2.6472-4.5977-1.9175-1.8757-4.2116-2.831-6.8821-2.866-2.6707-.035-5.5129 1.488-8.5267 4.5689zm10.665 29.571 18.899-21.51 2.9198 2.5654-3.5405 26.814 14.838-16.888 2.729 2.3978-18.899 21.51-2.9199-2.5654 3.5533-26.829-14.851 16.902-2.729-2.3979zm21.925 19.02 17.878-22.366 16.172 12.927-2.1097 2.6394-13.212-10.561-5.4755 6.85 12.373 9.8902-2.0974 2.6241-12.373-9.8902-6.0853 7.6128 13.73 10.976-2.1097 2.6393-16.69-13.341zm20.854 16.518 16.885-23.124 3.139 2.292-1.1112 27.024 13.257-18.156 2.9339 2.1424-16.885 23.124-3.1389-2.2921 1.1227-27.04-13.268 18.171-2.9339-2.1423zm-218.8046-424.5131-.2998 3.7772-16.491-1.309c-2.8685-.2276-5.1208-.733-6.7567-1.5159-1.6358-.783-2.9155-2.0634-3.8389-3.8412s-1.276-4.0426-1.0575-6.7944c.2122-2.6739.8466-4.8245 1.9031-6.4517 1.0566-1.6272 2.4866-2.735 4.2901-3.3233 1.8035-.5884 4.2174-.7624 7.2418-.5224l16.491 1.3089-.2998 3.7772-16.472-1.3074c-2.4792-.1968-4.3245-.1114-5.5357.2562-1.2113.3676-2.1794 1.0874-2.9046 2.1598-.7251 1.0722-1.1521 2.4197-1.281 4.0422-.2204 2.7776.2521 4.8071 1.4174 6.0882 1.1652 1.2811 3.5391 2.0639 7.1216 2.3482zm-29.225 7.7915 28.613 1.0741-.1458 3.884-23.029 14.185 22.465.8433-.1363 3.6303-28.613-1.0741.1457-3.884 23.048-14.184-22.484-.844.1363-3.6303zm-.9594 28.932 28.632-.2086.0718 9.8631c.0162 2.2265-.1081 3.9266-.373 5.1005-.3656 1.6433-1.039 3.048-2.0201 4.214-1.265 1.5197-2.8876 2.6611-4.8677 3.4242-1.9802.7632-4.2463 1.154-6.7984 1.1727-2.1744.0158-4.1032-.2241-5.7866-.7196-1.6833-.4956-3.078-1.1365-4.184-1.9227-1.1061-.7862-1.9782-1.6491-2.6166-2.5884-.6384-.9395-1.1252-2.0752-1.4605-3.4075-.3351-1.3322-.509-2.8642-.5217-4.5959zm3.4064 3.7643.0445 6.1132c.0138 1.8879.2004 3.3677.5597 4.4394.3593 1.0716.8604 1.9241 1.503 2.5574.905.8919 2.1177 1.583 3.6382 2.0732 1.5206.4902 3.3616.7274 5.523.7117 2.9947-.0218 5.2925-.5301 6.8933-1.5249 1.601-.9947 2.6697-2.1972 3.2063-3.6074.3832-1.0185.5666-2.654.5503-4.9065l-.0439-6.0154zm-2.5599 36.227 28.553-2.1364.736 9.8358c.1661 2.2203.1565 3.9251-.0287 5.1141-.2542 1.6642-.8315 3.111-1.7318 4.3405-1.1598 1.6015-2.7018 2.8496-4.6261 3.7444-1.9243.8947-4.1589 1.4373-6.7039 1.6277-2.1684.1623-4.109.0529-5.8219-.3283-1.713-.3811-3.1476-.9266-4.3041-1.6365-1.1564-.71-2.0847-1.5121-2.7849-2.4063-.7002-.8943-1.2624-1.9947-1.6866-3.3013-.4242-1.3067-.7009-2.8234-.8301-4.5504l-.7708-10.303zm3.6521 3.5264.4562 6.0962c.1408 1.8828.4267 3.3466.8574 4.3917.4307 1.0449.9879 1.8618 1.6718 2.4505.963.8288 2.2195 1.4366 3.7697 1.8234 1.5501.3866 3.4028.4994 5.5583.3382 2.9863-.2234 5.2447-.8854 6.7749-1.9856 1.5303-1.1004 2.5156-2.372 2.956-3.8152.3138-1.0419.3866-2.6861.2186-4.9324l-.4488-5.9989-21.814 1.6322zm-1.3129 25.365 28.408-3.578 2.587 20.541-3.3524.4222-2.1136-16.782-8.7007 1.0959 1.9793 15.716-3.333.4198-1.9793-15.716-9.6698 1.2178 2.1966 17.44-3.3525.4223zm3.465 26.477 28.175-5.0973 2.2601 12.492c.4543 2.5114.5466 4.4662.277 5.8648-.2698 1.3984-.9745 2.6043-2.1144 3.6177s-2.4851 1.6603-4.0353 1.9408c-1.9988.3617-3.8008.0194-5.4059-1.0267s-2.838-2.8873-3.6987-5.5236c-.2955 1.0724-.6276 1.9066-.9962 2.5025-.8023 1.2699-1.8649 2.5274-3.1879 3.7724l-6.7818 6.2882-.8484-4.6895 5.1874-4.789c1.4941-1.395 2.626-2.526 3.3955-3.393.7693-.867 1.283-1.6116 1.5409-2.2339.2579-.6222.4053-1.2344.4419-1.8365.0131-.439-.0672-1.139-.241-2.1l-.7824-4.3243-12.512 2.2635-.6745-3.7285zm16.415.8808 1.4499 8.0145c.3083 1.7041.7255 3.0047 1.2518 3.9019.5261.8973 1.222 1.5255 2.0876 1.885.8655.3594 1.7532.4569 2.6629.2923 1.3326-.2411 2.3406-.9229 3.024-2.0456s.8363-2.7283.4585-4.8167l-1.6134-8.9177zm-8.6306 38.295 27.662-7.3934 2.5469 9.5288c.5748 2.151.8815 3.8279.92 5.0307.0588 1.6825-.2402 3.2112-.8969 4.5864-.8428 1.7887-2.1267 3.301-3.8516 4.5371-1.7252 1.236-3.8204 2.1835-6.2859 2.8425-2.1008.5614-4.028.8138-5.7819.7569-1.7539-.0568-3.2648-.3269-4.5328-.8101-1.2681-.4833-2.329-1.0994-3.1828-1.8482-.854-.749-1.6104-1.7261-2.2695-2.9314-.6591-1.2054-1.2123-2.6445-1.6594-4.3176zm4.2427 2.7881 1.5786 5.906c.4875 1.824 1.0397 3.2094 1.6567 4.1564.6171.947 1.3162 1.6463 2.0973 2.098 1.0999.6361 2.4474 1.0003 4.0423 1.0929s3.4365-.1402 5.5247-.6983c2.8931-.7733 4.9896-1.8424 6.2894-3.2074 1.2996-1.365 2.032-2.7974 2.1973-4.2971.1151-1.082-.1182-2.7112-.6998-4.8874l-1.5533-5.8116zm2.4324 22.102 30.64 1.3887 1.2895 3.873-23.465 20.163-1.3636-4.0954 7.173-5.9081-3.7819-11.36-9.2212-.2444-1.2708-3.8174zm13.765 4.1247 3.0662 9.21 6.5798-5.3401c1.9976-1.6257 3.6616-2.8932 4.9919-3.8028-1.8571.234-3.7492.3218-5.6761.2635zm-4.1648 24.22 26.552-10.716 4.7516 11.773c.9552 2.3666 1.4428 4.2619 1.463 5.686.0201 1.424-.4249 2.7481-1.3351 3.9719s-2.0957 2.1306-3.5568 2.7204c-1.8835.7602-3.7175.7913-5.5016.0933-1.7842-.6981-3.3655-2.2503-4.7439-4.6567-.0715 1.11-.2272 1.9942-.4669 2.6526-.5276 1.4065-1.3126 2.8536-2.3548 4.3414l-5.3625 7.5352-1.7837-4.4192 4.1059-5.7433c1.1796-1.6697 2.058-3.0071 2.6351-4.0123.5773-1.0052.9289-1.8387 1.055-2.5004s.1459-1.291.0594-1.888c-.0764-.4326-.2972-1.1016-.6627-2.0072l-1.6448-4.0751-11.791 4.7588-1.4182-3.5136zm16.252-2.4732 3.0483 7.5525c.6482 1.6059 1.321 2.7946 2.0187 3.5662.6974.7716 1.5065 1.2454 2.4271 1.4214.9205.1761 1.8095.0911 2.6668-.2549 1.2557-.5069 2.1041-1.3794 2.5451-2.6174.441-1.2382.2644-2.8413-.5299-4.8094l-3.3918-8.4039zm2.4939 24 1.8277 3.0875c-1.2183.7721-2.1075 1.6354-2.6676 2.5901-.5602.9547-.8141 2.1415-.7616 3.5604.0524 1.419.4306 2.8622 1.1346 4.3297.625 1.3032 1.3706 2.3608 2.2368 3.1728.866.812 1.7535 1.2998 2.6622 1.4632.9088.1635 1.7623.0537 2.5607-.3293.81-.3886 1.4047-.9627 1.7841-1.7222.3793-.7597.5154-1.7781.4082-3.0552-.0622-.8222-.3774-2.5556-.9456-5.2002-.5681-2.6446-.8279-4.5635-.7792-5.7566.0544-1.5424.415-2.8455 1.0818-3.909.6668-1.0636 1.593-1.8797 2.7788-2.4485 1.3031-.6252 2.6986-.8396 4.1863-.6434 1.4876.1962 2.8657.8638 4.1341 2.0028 1.2684 1.1389 2.3193 2.5772 3.1528 4.3147.9179 1.9136 1.4193 3.7492 1.504 5.5064.0848 1.7573-.2829 3.3164-1.1031 4.6774s-1.9734 2.434-3.4597 3.2192l-1.8177-3.1573c1.5473-.9589 2.4943-2.146 2.8407-3.5614.3464-1.4153.0438-3.115-.9079-5.0991-.9912-2.0663-2.0921-3.3902-3.3026-3.9722-1.2106-.5819-2.3501-.6165-3.4183-.1041-.9275.4449-1.5301 1.1456-1.8079 2.1019-.2833.9447-.0732 2.9559.6306 6.0338.7037 3.0777 1.0686 5.2459 1.0945 6.5042.0282 1.835-.3172 3.3653-1.0362 4.5912-.7189 1.2258-1.7711 2.171-3.1564 2.8354-1.3736.6589-2.8566.8865-4.4489.6828-1.5925-.2037-3.0796-.8804-4.4614-2.0299-1.3817-1.1496-2.5147-2.646-3.3988-4.4892-1.1207-2.3362-1.7193-4.4572-1.7958-6.3629-.0765-1.9056.3536-3.6355 1.2906-5.1897.9369-1.5542 2.257-2.7686 3.9602-3.6434zm7.5476 35.509 22.083-12.251-4.5765-8.2492 2.9546-1.6391 11.01 19.846-2.9547 1.6392-4.5954-8.2834-22.083 12.251-1.8382-3.3133zm8.5035 15.008 24.17-15.351 11.099 17.476-2.8523 1.8115-9.0679-14.278-7.4027 4.7015 8.4919 13.371-2.8357 1.801-8.4921-13.371-8.2271 5.2251 9.424 14.838-2.8523 1.8115-11.455-18.037zm14.393 22.233 23.267-16.688 2.2084 3.079-20.521 14.718 8.2186 11.459-2.7457 1.9693-10.427-14.538zm13.1 18.006 22.396-17.84 2.3608 2.9637-19.753 15.735 8.7861 11.03-2.6428 2.1052-11.147-13.994zm47.91 12.419 2.5248 2.8253-12.335 11.023c-2.1457 1.9175-4.0665 3.1974-5.7625 3.8398-1.6961.6425-3.5058.6837-5.4293.1238-1.9236-.5599-3.805-1.8691-5.6443-3.9273-1.7873-2.0001-2.9046-3.944-3.3518-5.832-.4473-1.8879-.2609-3.6872.5591-5.3978.82-1.7107 2.3611-3.5768 4.6233-5.5983l12.335-11.023 2.5247 2.8253-12.321 11.01c-1.8544 1.6571-3.067 3.0506-3.6377 4.1805-.5706 1.1299-.7186 2.3273-.4438 3.5922.2747 1.265.9543 2.5043 2.0389 3.7179 1.8567 2.0778 3.6507 3.1376 5.382 3.1795s3.9368-1.1344 6.6165-3.529l12.321-11.01zm-14.485 26.464 20.13-20.362 2.7641 2.7326-5.1104 26.56 15.805-15.987 2.5834 2.5541-20.131 20.362-2.764-2.7326 5.1241-26.574-15.819 16-2.5834-2.5541zm38.183 20.598 2.2112-2.5291 9.1439 7.9686-6.9934 7.999c-2.3788-.1082-4.5596-.5317-6.5424-1.2707-1.9828-.7391-3.7583-1.7943-5.3268-3.1655-2.1173-1.8512-3.6447-3.9864-4.5821-6.4059-.9375-2.4194-1.0973-4.8725-.4797-7.3593.6175-2.4868 1.8519-4.7888 3.7032-6.9062 1.834-2.0977 3.9846-3.6723 6.4518-4.7236 2.4671-1.0514 4.9097-1.2982 7.3279-.7407 2.4181.5577 4.7006 1.7748 6.8474 3.6518 1.5586 1.3628 2.747 2.8471 3.5653 4.4532.8182 1.6061 1.1909 3.1729 1.1181 4.7004-.073 1.5275-.5574 3.1794-1.4532 4.9559l-3.1903-1.5439c.6364-1.3807.9887-2.5948 1.0568-3.6421.0682-1.0473-.1787-2.1496-.7408-3.3069s-1.3871-2.2116-2.4752-3.1629c-1.3038-1.1398-2.6046-1.927-3.9025-2.3613-1.298-.4343-2.5215-.5829-3.6704-.4459-1.1488.1371-2.2236.4513-3.2241.9429-1.7145.8532-3.2531 2.0592-4.6158 3.6177-1.6798 1.9213-2.7545 3.8182-3.2241 5.6906s-.3464 3.6751.3696 5.408 1.7847 3.2208 3.2061 4.4635c1.2351 1.0799 2.6487 1.8963 4.2407 2.4493 1.5919.553 2.9274.8257 4.0067.8179l3.5095-4.0142zm276.176 127.1634 5.6484-28.07 12.446 2.5045c2.5019.5035 4.3531 1.1384 5.5537 1.9045 1.2006.7663 2.0617 1.866 2.5836 3.2992.5217 1.4332.6272 2.9221.3164 4.4666-.4007 1.9914-1.3831 3.5403-2.9472 4.6466-1.5641 1.1064-3.7301 1.5737-6.498 1.4019.8878.67 1.5408 1.2863 1.9589 1.8485.8847 1.214 1.6618 2.6654 2.3315 4.3542l3.3452 8.6223-4.672-.9401-2.5394-6.5875c-.746-1.9032-1.38-3.3724-1.9024-4.4072-.5222-1.0347-1.025-1.7868-1.5083-2.2559-.4834-.4692-.9982-.8318-1.5444-1.0878-.4032-.1741-1.0836-.3575-2.0409-.5502l-4.3081-.867-2.5084 12.465zm6.8701-14.934 7.9846 1.6067c1.6977.3417 3.0605.4333 4.0885.2748 1.028-.1584 1.8687-.5736 2.5219-1.2456.6533-.6721 1.0711-1.4613 1.2534-2.3676.2671-1.3276.0049-2.5159-.7867-3.5651-.7917-1.0492-2.2278-1.7831-4.3085-2.2018l-8.8845-1.7878zm18.334 19.996 15.379-26.538 4.0308.6445 7.0512 30.124-4.2622-.6815-1.9289-9.0904-11.822-1.8903-4.4743 8.0667-3.973-.6353zm10.014-10.306 9.5853 1.5326-1.6989-8.3021c-.5197-2.5226-.8758-4.5838-1.0683-6.1837-.6499 1.7554-1.4455 3.4742-2.3871 5.1566zm41.457-11.351 3.7638.4369-1.9079 16.433c-.332 2.8584-.9189 5.0908-1.7607 6.697-.8419 1.6064-2.1681 2.8386-3.9783 3.6967-1.8103.8582-4.0865 1.1281-6.8284.8097-2.6644-.3094-4.7904-1.0216-6.3782-2.1365-1.5877-1.1151-2.6428-2.5844-3.1651-4.4082s-.6085-4.2424-.2586-7.256l1.9079-16.433 3.7638.437-1.9056 16.413c-.2869 2.4705-.2687 4.3175.0546 5.5414.3233 1.2238 1.0074 2.2175 2.0527 2.9813 1.0452.7636 2.3761 1.2393 3.9928 1.427 2.7679.3214 4.8132-.0769 6.1358-1.1949 1.3227-1.1179 2.1912-3.4618 2.6057-7.0315l1.9057-16.413zm6.6447 29.515 1.8284-28.574 5.6915.3643 5.4689 20.665c.503 1.924.8677 3.363 1.0937 4.3169.3914-1.0187.9958-2.5132 1.8134-4.4832l8.1138-19.443 5.0871.3255-1.8284 28.574-3.6449-.2332 1.5304-23.916-9.8337 23.385-3.411-.2183-6.7078-24.854-1.5566 24.325-3.6448-.2332zm33.269 1.8582.4183-28.63 3.7887.0555-.369 25.251 14.1.2061-.0493 3.3785-17.889-.2614zm22.502.2415-.901-28.619 20.693-.6514.1063 3.3772-16.906.5322.276 8.7652 15.832-.4985.1057 3.3577-15.832.4985.3067 9.7413 17.569-.5532.1063 3.3773-21.357.6723zm26.743-.9784-2.476-28.526 3.7748-.3276 1.0168 11.714 14.827-1.287-1.0168-11.714 3.7749-.3277 2.4761 28.526-3.7749.3277-1.1671-13.446-14.827 1.2871 1.167 13.446-3.7749.3277zm28.728-2.6735-4.1879-28.325 12.559-1.8569c2.5246-.3733 4.4815-.4027 5.8705-.0881 1.3891.3145 2.5717 1.0578 3.5479 2.2297.9761 1.1719 1.5795 2.5371 1.8099 4.0957.2971 2.0094-.1029 3.7994-1.2002 5.37-1.0971 1.5706-2.977 2.7436-5.6396 3.519 1.0623.33 1.8853.6888 2.4691 1.0763 1.2434.8428 2.4659 1.9454 3.6677 3.3077l6.0667 6.9806-4.7143.6971-4.6196-5.3388c-1.3462-1.5384-2.4403-2.706-3.282-3.5029-.8418-.797-1.5694-1.3343-2.1831-1.6121s-1.2208-.4447-1.8213-.5007c-.4385-.0273-1.1407.0304-2.1068.1732l-4.3472.6428 1.8597 12.578-3.7483.5542zm1.4087-16.378 8.0569-1.1912c1.7131-.2533 3.0265-.6284 3.9403-1.1255.9136-.4971 1.564-1.1724 1.9511-2.026.3872-.8536.5132-1.7376.3779-2.6522-.198-1.3395-.847-2.3689-1.9472-3.0882-1.1001-.7192-2.6999-.9236-4.7994-.6133l-8.9651 1.3255zm27.176 11.933-5.8899-28.02 20.26-4.2587.6951 3.3066-16.552 3.4793 1.8039 8.582 15.501-3.2583.691 3.2876-15.501 3.2582 2.0049 9.5377 17.202-3.6158.6951 3.3066-20.91 4.3954zm32.643-16.34-.967-3.4003 10.389-2.9544.967 3.4004zm-420.4895-38.5728 13.378 9.3809-1.8586 2.6506-10.228-7.1724-4.8108 6.8602 9.2301 6.4726-1.8586 2.6506-9.2303-6.4726-7.7956 11.117-3.1494-2.2086 16.324-23.278zm23.343 20.31-11.966 9.1777 8.8398 5.5818zm.1876-4.3633 3.6873 2.3284-6.0178 29.825-3.3813-2.1352 1.7041-7.5497-10.836-6.8425-6.0839 4.7842-3.4297-2.1656 24.358-18.244zm19.543 29.138c.5839.6466.9936 1.5592 1.229 2.7381.2355 1.1788.3063 2.6584.2127 4.4387l-.3842 8.6867-3.6068-2.0166.3845-8.141c.1094-2.1206-.0692-3.6677-.5358-4.6412s-1.3647-1.8321-2.6944-2.5755l-3.6567-2.0446-5.864 10.488-3.3575-1.8771 13.875-24.816 7.5794 4.2376c2.8367 1.586 4.6217 3.3622 5.355 5.3285.7334 1.9663.4308 4.1462-.9073 6.5396-.8736 1.5625-1.9614 2.656-3.2633 3.2808-1.3021.6247-2.7571.7493-4.3652.3737zm-2.5837-15.124-4.9254 8.8094 4.2219 2.3604c1.6178.9046 3.0485 1.2136 4.2923.9272 1.2437-.2864 2.2714-1.1554 3.083-2.607.8116-1.4515 1.0107-2.7766.5971-3.975s-1.4292-2.2499-3.047-3.1544zm17.516 22.734-4.5876 9.3518 5.5393 2.7173c1.8578.9115 3.4228 1.2019 4.695.8714 1.2721-.3304 2.2967-1.2878 3.0739-2.8721.7827-1.5957.9127-2.992.3899-4.1889-.523-1.1969-1.7134-2.2509-3.5712-3.1623zm5.1494-10.497-3.774 7.6935 5.1119 2.5076c1.6868.8275 3.0986 1.1277 4.2352.9004 1.1368-.2272 2.0237-.9905 2.6612-2.2898.6317-1.288.691-2.4537.1779-3.4974-.5134-1.0436-1.6134-1.9791-3.3003-2.8067zm-2.0613-4.5322 8.8219 4.3276c2.6329 1.2915 4.3933 2.8339 5.2813 4.627.8879 1.7931.8371 3.6983-.1525 5.7158-.766 1.5615-1.7402 2.6249-2.9225 3.1903-1.1824.5654-2.5361.6153-4.0612.1501 1.5193 1.1977 2.4653 2.6058 2.8382 4.2239.3728 1.6182.1342 3.2935-.7156 5.0259-1.1183 2.2796-2.7571 3.6603-4.9167 4.1423-2.1595.4819-4.6697.0212-7.5305-1.3821l-9.1639-4.4953 12.522-25.525zm22.862 10.978 3.5314 1.5251-9.9892 23.129 12.71 5.4892-1.2837 2.9719-16.241-7.0143 11.273-26.101zm18.771 7.9841 16.814 6.3585-1.145 3.028-13.216-4.9979-2.9772 7.8729 12.664 4.7891-1.1451 3.028-12.664-4.7891-3.644 9.6362 13.537 5.1191-1.1452 3.0281-17.135-6.4798 10.056-26.593zm21.705 8.0973 3.6655 1.1669-3.5353 11.105 13.319 4.2399 3.5352-11.105 3.6655 1.1669-8.6244 27.092-3.6654-1.1668 4.107-12.902-13.319-4.2399-4.1071 12.902-3.6654-1.1669 8.6243-27.092zm35.785 26.225c.7289.4771 1.3569 1.2558 1.884 2.3362.527 1.0804.9713 2.4935 1.3328 4.2392l1.8341 8.4996-4.0006-1.0347-1.6953-7.9717c-.4327-2.0789-.9984-3.5299-1.6968-4.3531-.6985-.8232-1.7852-1.4255-3.2601-1.8069l-4.0559-1.0489-3.0086 11.633-3.7242-.9632 7.1185-27.526 8.4071 2.1742c3.1465.8138 5.3239 2.0785 6.5325 3.794 1.2085 1.7156 1.4695 3.9009.7829 6.5558-.4482 1.733-1.2226 3.067-2.3232 4.0018-1.1007.9349-2.4765 1.4248-4.1272 1.4699zm-6.3393-13.972-2.5271 9.7712 4.6829 1.2111c1.7944.4642 3.2568.3997 4.387-.1931 1.1303-.5929 1.9036-1.6943 2.32-3.3044s.2724-2.9423-.4319-3.9964c-.7043-1.0542-1.9537-1.8132-3.7481-2.2774zm21.995 2.2287 17.607 3.6277-.6532 3.1707-13.839-2.8515-1.6985 8.2438 13.261 2.7323-.6533 3.1707-13.261-2.7323-2.0791 10.09 14.175 2.9207-.6534 3.1707-17.942-3.697 5.7375-27.846zm34.479 6.4603 3.8131.5075-1.5854 11.911 14.233-10.228 4.9079.6533-15.736 11.276 12.986 17.04-5.0212-.6683-11.728-15.374-1.8066 13.572-3.813-.5075 3.7511-28.183zm35.216 6.6127c-2.7839-.2242-5.0789.6353-6.8849 2.5784-1.8059 1.9432-2.8531 4.7055-3.1418 8.2866-.2875 3.5686.3044 6.4565 1.7759 8.6639 1.4715 2.2073 3.5993 3.4232 6.3832 3.6474 2.784.2244 5.0726-.6356 6.8659-2.5798 1.7933-1.9443 2.8338-4.7007 3.1213-8.2693.2886-3.5811-.2966-6.4748-1.7554-8.6812-1.4589-2.2063-3.5803-3.4216-6.3642-3.6461zm.2509-3.1129c3.9735.3202 7.0423 1.908 9.2067 4.7635s3.066 6.5229 2.705 11.003c-.3599 4.467-1.8367 7.9364-4.4303 10.408-2.5938 2.472-5.8773 3.5479-9.8508 3.2278-3.986-.3212-7.0647-1.9066-9.2359-4.7562s-3.0763-6.5142-2.7153-10.994c.361-4.4796 1.8415-7.9552 4.4415-10.427 2.5999-2.4715 5.893-3.5467 9.8791-3.2255zm17.424 1.7826 5.7306.128 6.8216 19.505 7.7235-19.18 5.7306.128-.6347 28.424-3.7506-.0838.5574-24.959-7.7651 19.331-3.8647-.0863-6.8944-19.659-.5574 24.959-3.7315-.0833.6347-28.424zm36.162 3.482.3013 10.679 4.8351-.1365c1.7892-.0504 3.1594-.5527 4.1104-1.5067.951-.9539 1.4023-2.2875 1.354-4.0007-.048-1.7005-.5736-3.0002-1.5769-3.899-1.0034-.8987-2.3997-1.3229-4.189-1.2724l-4.8349.1364zm-3.9344-3.0513 8.6801-.245c3.1853-.0899 5.6136.5623 7.2849 1.9566 1.6714 1.3943 2.5463 3.4811 2.6247 6.2602.0792 2.8046-.6764 4.9469-2.2666 6.4269s-3.9779 2.265-7.1632 2.3548l-4.835.1364.3224 11.421-3.8452.1086-.8021-28.42zm33.898 1.0412c-2.7851.2098-4.9191 1.4145-6.4021 3.6141-1.4831 2.1997-2.0896 5.0908-1.8199 8.6734.2689 3.57 1.3013 6.3313 3.097 8.284 1.7958 1.9526 4.0863 2.8241 6.8713 2.6144 2.7851-.2098 4.9128-1.414 6.3831-3.6127 1.4705-2.1986 2.0712-5.083 1.8023-8.653-.2698-3.5827-1.2962-6.3508-3.0794-8.3044-1.7831-1.9536-4.0672-2.8255-6.8523-2.6158zm-.2345-3.1142c3.9751-.2994 7.2529.7938 9.8336 3.2793 2.5807 2.4856 4.0398 5.9691 4.3773 10.45.3366 4.4688-.5847 8.1252-2.764 10.969-2.1793 2.8441-5.2565 4.4157-9.2315 4.7152-3.9878.3003-7.2749-.7889-9.8614-3.2676s-4.0486-5.9589-4.3861-10.44c-.3376-4.4814.5864-8.1444 2.7721-10.989 2.1856-2.8445 5.2722-4.4169 9.26-4.7173zm34.816-2.2013.4581 3.7234c-1.5344-.5148-2.965-.8632-4.2921-1.0453s-2.5891-.1995-3.7861-.0523c-2.0791.2558-3.6329.8562-4.6615 1.8013-1.0285.9452-1.4513 2.1611-1.2684 3.648.1535 1.2475.6442 2.1432 1.4722 2.6873s2.3118.8828 4.4515 1.0161l2.364.1889c2.9143.1916 5.1328.8876 6.6556 2.0881 1.5227 1.2005 2.4251 2.9474 2.7071 5.2407.3364 2.7342-.3253 4.9197-1.9851 6.5565-1.6597 1.6367-4.2599 2.6729-7.8006 3.1084-1.3357.1643-2.775.1879-4.3179.0707-1.5429-.1171-3.1572-.3727-4.8429-.7665l-.4836-3.9313c1.6568.6788 3.2558 1.1472 4.7969 1.4054 1.5409.2581 3.0298.2988 4.4662.1221 2.1798-.2681 3.8093-.9034 4.8883-1.906 1.0791-1.0025 1.5209-2.2976 1.3256-3.8853-.1705-1.386-.729-2.4173-1.6757-3.0939-.9466-.6767-2.4141-1.0909-4.4026-1.2428l-2.3806-.1676c-2.9174-.2168-5.0869-.8516-6.5083-1.9048-1.4214-1.0531-2.2646-2.6569-2.5297-4.8116-.3069-2.4948.3302-4.5686 1.9112-6.2212 1.5811-1.6527 3.9152-2.6689 7.0022-3.0486 1.3231-.1627 2.686-.2089 4.0889-.1384s2.852.2567 4.3473.5588zm6.6537-1.9653 3.8018-.5858 4.3298 28.1-3.8019.5858zm6.6637-.9196 23.653-4.3606.587 3.1837-9.9256 1.8298 4.5678 24.776-3.8017.7008-4.5678-24.776-9.9254 1.8298-.587-3.1835zm26.47-5.0738 3.7609-.8076 5.9699 27.797-3.761.8077-5.9698-27.797zm22.124-2.4422c-2.7088.6808-4.6067 2.2311-5.6937 4.6511-1.087 2.4198-1.1927 5.3721-.317 8.8566.8725 3.472 2.3598 6.0175 4.4617 7.6359 2.1019 1.6185 4.5072 2.0875 7.216 1.4068 2.7087-.6808 4.6004-2.2295 5.6752-4.6463 1.0746-2.4169 1.1758-5.3614.3031-8.8335-.8756-3.4844-2.3583-6.0375-4.4479-7.6591-2.0895-1.6216-4.4887-2.0921-7.1974-1.4114zm-.7611-3.0288c3.866-.9715 7.2821-.4523 10.248 1.5578 2.9661 2.01 4.9969 5.1944 6.0922 9.553 1.0922 4.3464.8066 8.1063-.8568 11.28s-4.4282 5.246-8.2943 6.2176c-3.8784.9747-7.303.4608-10.274-1.5416-2.9707-2.0023-5.0037-5.1828-6.099-9.5414s-.8083-8.1254.8613-11.3 4.4435-5.2499 8.3221-6.2246zm17.315-3.9994 4.9558-1.5066 18.98 19.089-6.9182-22.756 3.571-1.0857 8.2698 27.202-4.9558 1.5066-18.98-19.089 6.9183 22.756-3.5711 1.0856-8.2698-27.202zm43.044-13.093 1.248 3.5379c-1.6092-.1728-3.0812-.2054-4.4165-.0979-1.3352.1075-2.5714.3619-3.7087.7631-1.9755.6968-3.3638 1.6174-4.165 2.7616-.8013 1.1442-.9528 2.4227-.4544 3.8354.4181 1.1852 1.09 1.9545 2.0156 2.3078.9256.3534 2.4476.3651 4.5658.0352l2.3494-.3239c2.8873-.4396 5.2036-.237 6.9489.6081 1.7452.845 3.0021 2.357 3.7708 4.5359.9164 2.598.7401 4.8747-.5288 6.83-1.269 1.9554-3.5855 3.5265-6.9497 4.7132-1.2692.4477-2.6697.7803-4.2017.9976-1.532.2174-3.1635.315-4.8945.2929l-1.3176-3.7354c1.7639.3067 3.4262.4203 4.9867.341 1.5606-.0794 3.0233-.3597 4.3881-.8412 2.0712-.7306 3.5259-1.7014 4.3642-2.9126.8381-1.211.9912-2.5709.4591-4.0793-.4646-1.3169-1.2318-2.204-2.3018-2.6613-1.07-.4572-2.5923-.5462-4.567-.267l-2.3608.3482c-2.8958.4158-5.1511.2622-6.7657-.4606-1.6146-.7227-2.783-2.1078-3.5052-4.155-.8362-2.3706-.66-4.5328.5287-6.4868s3.2497-3.4482 6.1829-4.483c1.2571-.4434 2.5782-.7815 3.9634-1.0144 1.3852-.2328 2.8405-.3625 4.3658-.3891zm5.893-3.2307 3.5764-1.4165 9.2773 23.424 12.871-5.098 1.1921 3.0098-16.448 6.5145-10.469-26.433zm19.14-7.6843 16.449-7.2524 1.3061 2.9621-12.929 5.7006 3.3957 7.7016 12.389-5.4624 1.306 2.9622-12.389 5.4623 4.1563 9.4267 13.243-5.8388 1.306 2.9621-16.762 7.3908-11.47-26.015zm21.38-9.5237 3.4466-1.7084 5.1759 10.442 12.523-6.2077-5.1759-10.442 3.4465-1.7083 12.627 25.473-3.4464 1.7084-6.0132-12.131-12.523 6.2078 6.0132 12.131-3.4465 1.7084-12.627-25.473zm44.108-5.9405c.8569-.1573 1.8487-.0265 2.9754.3924 1.1268.419 2.423 1.1358 3.8888 2.1505l7.19 4.8898-3.6106 2.0099-6.7255-4.6035c-1.747-1.207-3.1573-1.8676-4.2308-1.9819-1.0735-.1144-2.2757.1989-3.6069.9399l-3.6604 2.0377 5.8444 10.499-3.3609 1.871-13.829-24.842 7.5871-4.2236c2.8397-1.5807 5.2887-2.1666 7.3471-1.7578 2.0584.4089 3.7544 1.8113 5.0882 4.2072.8706 1.5641 1.2298 3.0642 1.0776 4.5002-.1523 1.4361-.8107 2.7396-1.9749 3.9108zm-14.227-5.7457 4.909 8.8185 4.2262-2.3526c1.6195-.9015 2.634-1.9567 3.0436-3.1654.4096-1.2088.2099-2.5397-.5989-3.9928-.809-1.453-1.8319-2.3185-3.0689-2.596-1.2371-.2777-2.6653.0343-4.2848.9358zm17.6-13.607 15.299-9.4387 1.6998 2.7551-12.026 7.419 4.4195 7.1635 11.523-7.1091 1.6997 2.7551-11.523 7.1091 5.4092 8.7679 12.317-7.599 1.6998 2.7552-15.591 9.6186-14.928-24.197zm-628.753 110.1583 18.359-35.635 25.766 13.275-2.1665 4.2052-21.05-10.845-5.623 10.914 19.713 10.156-2.154 4.1809-19.713-10.156-6.2491 12.129 21.877 11.271-2.1665 4.2052-26.592-13.7zm33.02 16.866 17.392-36.116 4.7794 2.3014-15.34 31.855 17.787 8.5654-2.0524 4.262-22.567-10.867zm28.413 13.604 16.208-36.663 26.51 11.719-1.9126 4.3266-21.658-9.5744-4.9641 11.229 20.282 8.9663-1.9016 4.3016-20.282-8.9663-5.5168 12.48 22.508 9.9502-1.9127 4.3266-27.36-12.095zm33.986 14.976 14.453-37.39 7.4473 2.8788-1.3836 29.895c-.1369 2.7809-.2549 4.8558-.3541 6.2246.9509-1.1959 2.3863-2.9374 4.3063-5.2245l19.008-22.554 6.6566 2.5732-14.453 37.39-4.7694-1.8437 12.097-31.294-22.962 27.094-4.4633-1.7253 1.4902-36.01-12.304 31.83-4.7693-1.8436zm43.938 16.63 12.376-38.128 27.568 8.9486-1.4605 4.4993-22.523-7.3109-3.7905 11.678 21.092 6.8466-1.452 4.4734-21.092-6.8466-4.2126 12.978 23.407 7.5978-1.4604 4.4994-28.453-9.2357zm35.482 11.335 10.165-38.776 5.2636 1.3799 12.386 35.783 7.9807-30.444 4.9197 1.2896-10.165 38.776-5.2636-1.3798-12.379-35.809-7.9876 30.47-4.9197-1.2897zm49.287 11.946 6.9031-34.675-12.953-2.5786.9236-4.6395 31.162 6.2036-.9236 4.6395-13.006-2.5893-6.9031 34.675zm19.255 3.8984 20.679-37.633 5.6622.7737 10.829 41.938-5.9873-.8181-2.9892-12.662-16.607-2.2691-6.0054 11.433-5.5809-.7625zm13.688-14.744 13.465 1.8398-2.6422-11.566c-.8078-3.514-1.3719-6.3877-1.6923-8.6209-.8536 2.4776-1.9126 4.9086-3.1767 7.2933l-5.9535 11.054zm27.856 20.176 2.716-39.994 17.733 1.2042c3.5647.242 6.2502.7853 8.0565 1.6296 1.8063.8444 3.2024 2.2136 4.1884 4.1077.9859 1.8942 1.4041 3.9415 1.2547 6.1421-.1927 2.8372-1.2736 5.1665-3.2426 6.9878-1.9691 1.8213-4.8903 2.8654-8.7636 3.1322 1.3547.7681 2.3735 1.5041 3.0566 2.2082 1.4496 1.5237 2.7932 3.3963 4.031 5.6181l6.2174 11.358-6.6565-.452-4.7275-8.6801c-1.3829-2.5057-2.5313-4.429-3.4451-5.7702-.9139-1.341-1.749-2.293-2.5056-2.856s-1.5373-.9723-2.3421-1.228c-.5916-.168-1.5693-.2983-2.9334-.391l-6.1382-.4169-1.206 17.76-5.2926-.3595zm6.8099-21.984 11.376.7725c2.4189.1644 4.3273.0427 5.7254-.3649 1.398-.4075 2.489-1.1373 3.273-2.1895s1.2199-2.2239 1.3076-3.5152c.1284-1.8915-.4526-3.4931-1.7429-4.805-1.2904-1.3117-3.4179-2.0683-6.3824-2.2696l-12.658-.8596-.8985 13.231zm33.62 24.371-.02-40.086 28.984-.0146.0024 4.7305-23.68.0118.0061 12.277 22.176-.0111.0023 4.7031-22.176.0111.0069 13.645 24.609-.0123.0024 4.7305-29.914.0149zm214.02-33.067-12.762-38 5.0287-1.6888 11.256 33.516 18.715-6.2851 1.506 4.4843-23.744 7.974zm29.823-10.151-14.248-37.468 27.092-10.302 1.6814 4.4215-22.133 8.4168 4.3638 11.476 20.728-7.8822 1.6717 4.396-20.728 7.8822 4.8498 12.754 23.002-8.7472 1.6814 4.4215-27.961 10.633zm34.954-13.476-15.764-36.856 4.8773-2.0861 6.4734 15.135 19.157-8.194-6.4734-15.135 4.8773-2.0861 15.764 36.856-4.8773 2.0861-7.4305-17.372-19.157 8.194 7.4304 17.372zm37.079-16.017-17.265-36.178 16.04-7.6549c3.2245-1.5388 5.8309-2.3837 7.8191-2.5348 1.9882-.1509 3.8766.3568 5.6653 1.523s3.158 2.7447 4.108 4.7354c1.2248 2.5665 1.4264 5.1264.6049 7.6796-.8216 2.5534-2.8542 4.8969-6.0978 7.0305 1.5573.0043 2.8063.1455 3.747.4237 2.0108.6159 4.1006 1.5879 6.2695 2.916l10.992 6.8433-6.0213 2.8735-8.3794-5.242c-2.4348-1.5043-4.3794-2.6163-5.8338-3.3362-1.4545-.7198-2.6494-1.1392-3.5849-1.2583s-1.8166-.0925-2.6433.0798c-.5978.144-1.5137.5104-2.7476 1.0992l-5.5525 2.6498 7.6667 16.065-4.7874 2.2847zm-4.8578-22.496 10.291-4.911c2.1881-1.0442 3.7911-2.0869 4.8091-3.1282 1.018-1.0412 1.6103-2.2126 1.7769-3.5142.1666-1.3014-.0288-2.5363-.5862-3.7044-.8165-1.7109-2.1089-2.8212-3.877-3.3308-1.7682-.5094-3.9931-.1243-6.6747 1.1554l-11.45 5.4644 5.7117 11.969zm41.318 4.856-19.256-35.158 25.421-13.923 2.2723 4.149-20.769 11.375 5.8975 10.768 19.45-10.652 2.2592 4.1251-19.45 10.652 6.5543 11.967 21.584-11.821 2.2723 4.149-26.237 14.369zm-250.35 83.565-23.744-35.838 5.6094-1.2279 16.404 26.22c1.3181 2.1 2.4715 4.0869 3.4601 5.9605.1377-2.2694.3733-4.5603.7069-6.8726l4.3506-30.763 5.2888-1.1577-6.7606 42.515-5.3155 1.1636zm19.598-24.276c-1.4228-6.4997-.7915-11.97 1.8938-16.412 2.6854-4.4412 6.7881-7.2661 12.308-8.4745 3.6149-.7913 7.0627-.6409 10.344.451 3.2807 1.092 6.0205 3.0161 8.2194 5.7724 2.1988 2.7564 3.727 6.0933 4.5846 10.011.8693 3.9711.8456 7.6991-.071 11.184-.9167 3.485-2.6677 6.3548-5.2532 8.6096-2.5854 2.2548-5.5788 3.7544-8.9801 4.4989-3.6861.8069-7.1754.6376-10.468-.5077-3.2924-1.1454-6.0237-3.0947-8.194-5.8479-2.1701-2.7533-3.6314-5.8483-4.3837-9.2852zm5.3598-1.0893c1.0329 4.719 3.1154 8.1586 6.2475 10.319 3.1319 2.1602 6.6123 2.8212 10.441 1.9832 3.8999-.8537 6.8096-2.9275 8.729-6.2214s2.3276-7.4606 1.2245-12.5c-.6978-3.1875-1.8455-5.852-3.4432-7.9935-1.5978-2.1414-3.5772-3.6395-5.9383-4.4943-2.3611-.8547-4.8327-.9995-7.4147-.4343-3.6684.803-6.549 2.7538-8.6418 5.8524-2.0929 3.0987-2.4942 7.5951-1.2039 13.489zm42.995 10.49-8.5718-39.159 17.362-3.8006c3.4902-.764 6.2206-.9931 8.1909-.6873 1.9703.3059 3.6935 1.2302 5.1696 2.7732s2.45 3.3918 2.9216 5.5465c.6081 2.778.2214 5.3165-1.16 7.6156-1.3816 2.2991-3.8944 4.1181-7.5388 5.457 1.5154.3588 2.6995.7807 3.552 1.2658 1.8177 1.0577 3.6313 2.4801 5.4408 4.2673l9.1443 9.1668-6.5175 1.4267-6.9654-7.0126c-2.0282-2.0192-3.6684-3.5449-4.9206-4.5771-1.2524-1.0321-2.3204-1.7127-3.2041-2.0418-.8838-.329-1.7478-.5038-2.592-.5243-.615.004-1.5902.1522-2.9257.4445l-6.0101 1.3156 3.8064 17.389zm.3933-23.011 11.139-2.4382c2.3684-.5184 4.1667-1.1686 5.3952-1.9508 1.2283-.782 2.0718-1.7877 2.5305-3.0171.4586-1.2293.5496-2.4762.2728-3.7406-.4054-1.852-1.4108-3.2274-3.0165-4.1262-1.6056-.8988-3.8598-1.0305-6.7624-.3951l-12.394 2.713 2.8358 12.955z"/>
 <text x="-2915.44" y="-130.21" font-family="Liberation Sans,Arial" text-anchor="middle"><tspan x="-2915.44" y="-130.21" font-size="72" font-weight="bold">BAU</tspan><tspan x="-2915.44" y="-70.62" font-size="56">BAUPLATZ</tspan><tspan x="-2915.44" y="-14.62" font-size="56">VERSUCHSPLATZ</tspan><tspan x="-2915.44" y="41.38" font-size="56">ENTWURF</tspan><tspan x="-2915.44" y="97.38" font-size="56">BAU U. INGENIEUR:</tspan><tspan x="-2915.44" y="153.38" font-size="56">WISSEN</tspan></text>
 <switch>
  <g requiredFeatures="http://www.w3.org/TR/SVG11/feature#Text">
   <path id="a" transform="scale(-1 1)" d="m2602.2 454.44a554.59 554.59 0 0 1-221.2-600.33" opacity="0"/>
   <text font-family="Liberation Serif,Times New Roman" font-size="133.33" text-anchor="middle"><textPath startOffset="50%" requiredFeatures="http://www.w3.org/TR/SVG11/feature#Text" xlink:href="#a"><tspan font-family="Liberation Sans,Arial" font-size="40">LEHRE VON DEN STOFFEN</tspan></textPath></text>
  </g>
  <g aria-label="LEHRE VON DEN STOFFEN">
   <path d="m-2538.14 403.052-19.0586-19.8518 2.691-2.58354 16.9485 17.6538 10.0316-9.63077 2.1101 2.19793z"/>
   <path d="m-2522.15 387.561-19.9187-18.9887 14.4066-15.1122 2.2053 2.10236-11.8325 12.4121 6.3898 6.09147 11.024-11.5639 2.177 2.07542-11.0239 11.5639 6.9411 6.61706 12.3851-12.9917 2.2054 2.10236z"/>
   <path d="m-2491.66 354.024-9.6621-8.32502-9.7147 11.2749 9.6621 8.32502-2.435 2.82613-20.8482-17.9632 2.435-2.82613 8.8187 7.59834 9.7146-11.2749-8.8186-7.59834 2.435-2.82612 20.8482 17.9632z"/>
   <path d="m-2473.16 330.732-13.4106-1.34389-5.2498 6.77915 9.0337 6.99575-2.284 2.94947-21.7582-16.8496 7.9285-10.2382q2.8462-3.67525 6.0412-4.38774 3.1914-0.73989 6.1255 1.53224 2.4244 1.87749 2.9765 4.57774 0.5641 2.68481-0.9288 5.50585l14.1568 1.08193zm-15.8389-11.574q-1.8994-1.4709-3.8922-0.93909-1.9963 0.5044-3.8738 2.92883l-5.4172 6.99534 8.0299 6.21844 5.5129-7.11888q1.8058-2.33178 1.7054-4.43514-0.1038-2.13076-2.065-3.6495z"/>
   <path d="m-2467.52 323.14-22.5769-15.7355 11.9384-17.129 2.4997 1.74219-9.8054 14.0685 7.2425 5.04787 9.1353-13.1071 2.4677 1.71985-9.1354 13.1071 7.8675 5.48341 10.2633-14.7255 2.4996 1.74218z"/>
   <path d="m-2440.23 281.496-1.9898 3.316-29.3756-4.52983 2.0199-3.36624 20.5328 3.4375 5.0143 1.09552-3.326-3.9091-12.7143-16.4671 2.0199-3.36625z"/>
   <path d="m-2432.85 239.402q3.8119 2.02519 5.8961 5.01245 2.0935 2.97002 2.1807 6.51079 0.087 3.54076-1.883 7.2491-1.9886 3.74283-4.9543 5.66161-2.9565 1.90154-6.5803 1.81195-3.641-0.0987-7.47-2.1331-5.8299-3.09734-7.4117-8.02934-1.5991-4.94117 1.4249-10.633 1.9702-3.70833 4.9014-5.64545 2.914-1.94627 6.486-1.88417 3.5812 0.0448 7.4102 2.07919zm-1.7869 3.36338q-4.5362-2.41006-8.333-1.50788-3.7877 0.88494-5.987 5.02447-2.2176 4.17403-0.8745 7.80701t5.9483 6.07969q4.5708 2.42839 8.4802 1.56394 3.9014-0.89086 6.0732-4.97865 2.236-4.20853 0.84-7.82534-1.404-3.64322-6.1472-6.16324z"/>
   <path d="m-2410.83 225.055-27.4584 3.49617 1.7597 0.70866 2.9999 1.28401 16.5837 7.69311-1.3972 3.012-24.9642-11.5808 1.8246-3.93332 27.666-3.57215q-3.5713-1.39834-5.1305-2.12162l-16.3711-7.59448 1.4137-3.04743 24.9642 11.5808z"/>
   <path d="m-2406.82 177.569q3.9813 1.50937 6.3879 4.19721 2.3883 2.68091 2.8971 6.13228t-0.9037 7.17699l-3.6488 9.62452-25.7324-9.75555 3.2265-8.51049q2.4787-6.5381 7.1092-8.83482 4.6192-2.3219 10.6642-0.0301zm-1.3293 3.50646q-4.7849-1.81402-8.2839-0.13272-3.5104 1.65611-5.3937 6.6236l-1.8763 4.94924 20.1439 7.63688 2.1741-5.73453q1.0732-2.83074 0.6414-5.43831-0.4249-2.62583-2.3264-4.66263-1.9014-2.03679-5.0791-3.24153z"/>
   <path d="m-2392.02 177.602-26.188-8.45632 6.4157-19.8687 2.8995 0.93625-5.2695 16.3188 8.401 2.71274 4.9094-15.2036 2.8623 0.92426-4.9094 15.2036 9.1259 2.94681 5.5155-17.0808 2.8995 0.93626z"/>
   <path d="m-2379.31 134.891-26.4543 8.14582 1.855 0.39692 3.1755 0.75141 17.656 4.74013-0.8609 3.20676-26.5783-7.13552 1.1242-4.18765 26.6458-8.25621q-3.758-0.76623-5.4179-1.21189l-17.4297-4.67935 0.8711-3.24449 26.5783 7.13552z"/>
   <path d="m-2377.54 90.7198q3.7385 0.727564 5.219 4.06004 1.4842 3.3133 0.4507 8.62382-1.9215 9.87336-9.0909 10.1097l-0.019-3.68479q2.5542-0.13964 4.0925-1.90962 1.5192-1.7737 2.1871-5.20541 0.6902-3.54674-0.1445-5.69896-0.8501-2.17512-3.2082-2.63404-1.3229-0.257446-2.2666 0.195607-0.9401 0.433881-1.6896 1.42219-0.7494 0.988308-1.4085 2.43197-0.659 1.44366-1.4389 3.20205-1.3325 3.06359-2.3664 4.59347-1.0302 1.5107-2.0795 2.30138-1.0685 0.78695-2.3387 1.07698-1.2664 0.27087-2.781-0.0239-3.47-0.67533-4.834-3.68665-1.3602-3.0305-0.3975-7.97676 0.8954-4.60117 2.788-6.75986 1.8733-2.16242 5.457-2.47976l-0.069 3.72738q-2.2629 0.176435-3.546 1.6578-1.3024 1.47764-1.877 4.43006-0.6306 3.24 0.111 5.15521 0.7415 1.91521 2.8696 2.32936 1.2461 0.24252 2.1974-0.24887 0.9358-0.5143 1.7534-1.64852 0.7985-1.13795 2.3467-4.6968 0.5301-1.19018 1.0757-2.35747 0.5301-1.19018 1.172-2.23922 0.6227-1.05277 1.369-1.92232 0.75-0.888719 1.6969-1.46053 0.947-0.571813 2.1182-0.761743 1.1748-0.209102 2.651 0.07819z"/>
   <path d="m-2391.91 72.8317 24.2097 3.57767-0.5425 3.67107-24.2097-3.57767-1.382 9.35156-3.0141-0.445424 3.3064-22.3742 3.0141 0.445424z"/>
   <path d="m-2377.18 36.4221q4.296 0.418996 7.3618 2.38603 3.0676 1.9476 4.4981 5.1877t1.0229 7.41949q-0.4114 4.21827-2.4216 7.12279-2.0083 2.88508-5.3925 4.1838-3.4037 1.29682-7.7192 0.87593-6.5703-0.640817-9.913-4.59726-3.3621-3.95834-2.7365-10.3732 0.4076-4.17939 2.379-7.0877 1.9518-2.91021 5.2777-4.21462 3.3279-1.32384 7.6433-0.902953zm-0.3697 3.79061q-5.1124-0.498624-8.2786 1.78294-3.1642 2.26212-3.6192 6.92749-0.4588 4.70424 2.1679 7.55078t7.8169 3.35275q5.1514 0.502416 8.436-1.78721 3.2671-2.31096 3.7165-6.91801 0.4626-4.74312-2.2068-7.55458-2.687-2.83279-8.0327-3.35417z"/>
   <path d="m-2387.37 27.7178 10.223 0.481336 0.722-15.3346 3.0825 0.145136-0.722 15.3346 11.14 0.524509-0.1754 3.72634-27.4891-1.29428 0.9195-19.5291 3.0435 0.143298z"/>
   <path d="m-2386.56 4.36151 10.2343 0.029057 0.044-15.3515 3.0859 0.0088-0.044 15.3515 11.1523 0.031663-0.011 3.73045-27.5194-0.078132 0.055-19.5507 3.0468 0.0087z"/>
   <path d="m-2362.15-16.2936-27.4935 1.1949-0.9066-20.8592 3.044-0.132296 0.7446 17.1323 8.8198-0.383316-0.6937-15.9615 3.005-0.130599 0.6937 15.9615 9.5808-0.416391-0.7794-17.9323 3.044-0.132295z"/>
   <path d="m-2365.12-60.7568-21.9565 16.8553 1.8771-0.274524 3.2382-0.402471 18.2011-1.71082 0.3107 3.30574-27.3988 2.57538-0.4057-4.31691 22.0974-17.0255q-3.7894 0.591596-5.5006 0.752442l-17.9677 1.68889-0.3144-3.34463 27.3988-2.57538z"/>
  </g>
 </switch>
</svg>
